<?xml version="1.0" encoding="utf-8"?>
<!DOCTYPE svg PUBLIC "-//W3C//DTD SVG 1.1//EN" "http://www.w3.org/Graphics/SVG/1.1/DTD/svg11.dtd">
<svg version="1.1" id="Layer_1" xmlns="http://www.w3.org/2000/svg" xmlns:xlink="http://www.w3.org/1999/xlink" x="0px" y="0px"
	 viewBox="0 0 1920 1508" enable-background="new 0 0 1920 1508" xml:space="preserve">
<rect fill="#FFFBD6" stroke="#FFFBD6" stroke-width="9.375000e-002" width="1919" height="1508"/>
<path fill="#8CC63E" stroke="#8CC63E" stroke-width="9.375000e-002" d="M313.4,0H325c2.8,6.8,6.9,13.5,6.9,21.1
	c0.4,4.3-0.9,8.4-2.7,12.2c0.6,0.9,1.1,1.7,1.7,2.6c-0.6-0.4-1.8-1-2.3-1.4c0.1,6.6,4,12.3,8,17.3c2.2-1.7,1.8-5.2,2.7-7.7
	c2.1-11.5,8.1-22.3,17.5-29.3c1.9-1.5,4.3-1.3,6.6-1.4c2,6.1,1.8,12.8,0.3,19.1c-2.3,7.8-5.1,15.5-9.3,22.5
	c-2.3,3.1-4.7,6.2-7.5,8.9c-1.1,0.9-2.2,1.7-3.2,2.7c-0.6,1.9,0.7,3.7,1.5,5.3c2.3,3.8,4.6,7.5,7,11.2c0.9,1.6,2.6,2.3,4.2,2.9
	c1.4-5,1-10.2,2.1-15.2c0.7-4,2.2-7.9,2.4-12l0.5-0.2c3.6-9.4,8.1-19.4,17-24.8c2.4-1.7,5.3-1.4,8-1.2c0.2,2.6,0.4,5.3,0,7.9
	c-1.9,9.8,0.1,19.9-1.9,29.6c-0.7,3.6-1.8,7.2-3.2,10.6c0.4,0.3,1.1,0.7,1.5,1c-0.5,0-1.4,0-1.8,0c-3.4,7.3-7.9,13.9-12.7,20.4
	c5.4,9.1,12,18.8,22.2,22.9c0.5-4.7-0.3-9.3-0.7-13.9c0.1-8.5,1.7-17,4.7-25c1.4-3.6,3-7.1,4.9-10.5c2.3-3.7,4.4-7.5,7.2-10.9
	c1.1-1.6,3.2-1.2,4.9-1.3c1.6,5.3,1,10.9,1,16.4c0.1,1.9,0.4,3.8,0.7,5.6c1.9-0.9,3.3-2.5,4.3-4.3c2.4-4.1,4.3-8.6,7.1-12.5
	c0.6-0.8,1.7-1,2.6-1.4c2.7,5.5,3.6,11.5,4.1,17.6c-0.3,3.9-0.7,7.8-1.2,11.7c-1.4,8.1-4.2,15.9-7.2,23.5c-1.6,4.5-5.8,7.3-7.1,11.9
	c10.1-0.7,20-3.7,29.3-7.7c2.6-0.8,2.4-3.8,2.1-5.9c-0.8-5.9-1.1-11.9-0.6-17.9c-0.4-0.2-1.1-0.5-1.5-0.6c0.4-0.1,1.2-0.2,1.6-0.2
	c0.8-3.6,1.4-7.3,2.6-10.8c3.7-11.2,11.8-20.2,16.4-31c0.5-2.1,2.9-3.2,4.8-1.9c4,4.5,5.5,10.5,6.3,16.3c1.2,6.9-0.6,13.8-1.7,20.7
	c1,0.2,2.1,0.5,3.1,0.7c-0.9,0-2.6-0.1-3.5-0.2c-1.2,3.7-2.3,7.3-3.7,10.9c-1.8,4.4-3.8,8.6-5.6,13c7.5-2.5,15.2-5.5,20.9-11.2
	c0.2-0.2,0.5-0.5,0.6-0.7c-0.6-3.7-1.4-7.4-1.9-11.2c-0.8-5.3-0.3-10.7,0.6-16c1.5-8.2,5.6-15.5,9.4-22.8c0.9-2,3.1-4.1,5.4-2.6
	c5.2,6.1,6.4,14.6,5.9,22.4c-0.2,7.3-3.2,14-5.3,20.8c-0.1,0.5-0.4,1.6-0.5,2.2c1.3,1.2,2.9-0.9,3.4-2c4.1-0.4,7.1-3.4,10-6
	c3.3-2.9,2.1-7.8,3.6-11.6c2-7.1,7.7-12.2,13.9-15.7c4-2.2,7.8-5.5,12.6-5.6c4,10.4-0.3,22.6-8.1,30.2c-5.2,5.3-13.3,5.3-18.9,9.8
	c-3.7,2.2-7.3,4.7-10.2,7.8c4.9,1.2,9.7,2.5,14.5,4c0.5-1.6,0-4.6,2.6-4.3c7.2,0.3,14.2,2.7,21,5.1c5.9,3.4,11.4,7.5,15.5,12.9
	c1.5,2.2,2.7,4.6,4.5,6.5c0.8-4.3,3.4-9,1.3-13.3c-1.9-2.5-4.7-4-6.9-6.1c-2.7-3.6-5-7.4-6.8-11.5c-2.4-6.2-3-13.1-2-19.7
	c0.8-3.2,1.8-7,4.9-8.8c1.9-0.9,3.8,0.5,5,1.9c6.6,7.2,11.5,15.8,16.2,24.4c3-5.8,3.9-12.4,3.6-18.9c-0.5-5.8,2.8-11.2,7.1-14.7
	c4.3-3.5,9.2-7.5,15.2-6.9c-0.4,8.3-0.9,17.7-6.8,24.2c-2.4,2.9-6,4-8.9,6.1c-2.6,3.3-3,7.7-4.2,11.6c-0.3,1.3-0.5,2.6-0.6,3.9
	c2.5-1.2,4.9-2.7,7.3-4.2c9-5.2,20.8-7.8,30.5-2.7c-1.7,4-5.4,6.3-8.7,8.8c-2.5,1.7-5,4-8.3,3.8c-0.1,0.3-0.3,0.7-0.3,1
	c-7.3,4.4-16,5-24.3,4.6c-2.7,6-4.9,12.3-5.5,18.9c3.6-1.4,6.3-4.2,9.5-6.4c7.1-5.1,15.2-9.5,24-10.3c5.1-0.3,10.8-0.3,14.9,3.2
	c-1.3,3.9-5.7,5-8.3,8c-6.4,7.1-14,13.4-23.1,16.8c-6.1,2.3-12.7,2.2-19,3.9c-1.4,8.5-2.9,17.3-1.2,25.8c3.7-0.9,4.9-5,7.7-7.1
	c3.2-2.5,6.6-4.8,10.2-6.8c9.2-5,19.5-9,30.2-7.6c-0.2,1.3,0.3,2.9-0.8,4c-3.2,3.6-8.5,5.8-9.6,10.8c6,0.2,11.7-3.6,17.7-2.4
	c-0.3,1.2-0.5,2.5-1.1,3.6c-8.6,11.5-21.5,19.6-35.5,22.5c-3.3,0.5-6.6,0.6-9.8,1.2c4.7,6.2,12.3,8.7,18.9,12.2c1.8,1,4.8,2.1,6-0.3
	c5.9-8.1,13.7-14.9,23-18.7c6.1-2.8,13-3.1,19-6.2c2.3-1.3,5-1.2,7.6-1.3c0.7,10.5-7.8,18.6-15.8,23.9c-6.2,4.9-14,6.5-21.3,9.1
	c4.4,3.9,10.4,5.9,16.1,6.5c2.5,0.7,3.3-1.8,4.3-3.4c3.9-6.8,9.9-12.3,16.6-16.4c5.8-3.2,12.1-6.5,19-5.7c1.5,5.5-2.5,10.1-5.6,14.1
	c-5.3,6.4-13.1,9.7-20.1,13.7c4.4,1.9,9.1,3.4,14,3.2c3.8-1.2,6.8-4.3,10.8-5.3c8.4-2.2,17,0.5,24.8,3.4c-0.3,1.2,0.1,2.7-0.7,3.7
	c-6.6,6.7-16.9,9.3-25.9,6.6c-6.9-2.1-13.8-5.2-21.2-4.5c6,8,11.2,16.7,14.5,26.2c0.6,1.6,0.1,3.3,0,4.9c-9.5,1.9-18.9-2.7-25.3-9.4
	c-5.6-6.2-8.9-14.3-9.7-22.7c-2.1-4.1-7.5-4.4-11.5-5.1c2.2,6,4.5,11.9,5.5,18.3c1.8,9.8,0,20.4-5.4,28.8c-2.4,0.8-4.9-1.1-6.6-2.6
	c-6.5-6.4-10-15.2-11.8-24c-0.9-9.3-0.7-18.8,1-28c-4.5-2.9-9.6-4.8-14.3-7.5c3,6.8,6,13.7,7.2,21.1c1.1,6.4,0.8,13.4-2.7,19
	c-4.1-0.9-5.9-5-7.9-8.2c-6.3-10.4-13.6-20.8-15.5-33.1c-1-5.5,0.7-11,0.1-16.5c-3.2-2.3-7.4-3-10.5-5.6
	c-10-7.7-14.8-19.7-20.5-30.5c-2.1-4.3-4.5-8.4-5.5-13.1c2-0.5,4-1,6-0.3c7.3,2,13.4,7,18.4,12.6c3.1,3.2,4.3,7.8,7.8,10.6
	c0.7-4.4,1.3-8.8,1.4-13.3c-5.4-4-12.1-5.4-17.7-9c-2.9-1.7-5.4-4-8.3-5.8c-3-0.1-5.8,1.4-8.7,1.8c-9.1,1.3-18.3-0.4-26.9-3.2
	c-6.1-2.1-10.2-7.6-16-10.3c-5.3,0.6-10.5,3-15.3,5.4c6.9,3.6,14.5,6,20.6,10.9c6.6,5.4,12.5,11.9,16.3,19.6
	c2.3,5,4.8,10.4,4.1,16.1c-4,0.3-8.1,0.6-12-0.3c-17.7-4.1-33.3-15.7-43.1-30.8c-1.8-2.9-3.5-5.9-6.3-7.9c-5.1,0.4-9.8,3-14.5,4.8
	c0.5,1.9,2.5,2.3,4.2,2.8c6.9,2,13.2,5.7,18.9,10c6,4.9,12.2,11.1,12.7,19.2c-2.6,1.1-5.5,0.9-8.2,0.1c-12.5-3.7-25.6-5.2-37.6-10.2
	c-8.9-3.7-17.3-9.2-22.9-17.1c-1.1-1.6-2.9-3-4.9-2.4c-3.7,1.5-7.2,3.3-11.1,4.1c-14.2,3.1-28.7-1-42.1-5.5
	c-5.6-2.1-11.7-3-16.9-6.1c-1.4-1.1-3.4-2.2-3.4-4.1c1.1-2,2.9-3.5,5-4.5c7.2-3.7,15.5-5,23.6-4.9c6.5,0.1,12.7,2.3,19.1,3.1
	c-0.6-1.5-1.2-3.1-2.4-4.3c-3-3.4-5.7-7.1-9-10.2c-17.7,9.5-39.3,12.5-58.6,6.3c-4.6-1.4-9.2-3.5-12.3-7.3c-0.6-1.3-1.2-3.3,0.3-4.1
	c6.2-5.1,13-9.7,20.8-12c6.8-2,14-2.7,21.1-2.5c4.7,0.1,9.4,1.3,14.1,1.3c-0.9-4.2-4-7.3-6.4-10.6c-2.5-3-6.5-1-9.7-1
	c-12.5,0.5-25.3-4.2-33.8-13.4c-5.2-5.7-10.4-13.1-8.6-21.2c2.7-0.3,5.5-0.5,8.2,0c7.9,1.4,15.8,2.7,23.5,5.2
	c2.9,1.1,5.5,2.6,8.5,3.4c-0.2-1.5-0.4-3-0.8-4.4c-2.2-7.9-8.5-13.7-11.8-21.1c-3-6.1-4.1-13.1-2.9-19.8
	C311.8,4.5,312.5,2.2,313.4,0z"/>
<path fill="#8CC63E" stroke="#8CC63E" stroke-width="9.375000e-002" d="M1754.1,0h18.5c1.9,2.3,3.9,4.5,5.7,6.9
	c5,7.9,1.7,17.3,3.8,25.8c0.5,2.2,1.2,4.3,2.1,6.3c0.5,1,1.1,2,1.8,3c5.6-10.9,11.9-21.7,20.3-30.7c1.8-2.3,5.9-3.1,7.7-0.4
	c5.1,6.4,5.1,15.1,4.4,22.9c-1.3,9.7-5.5,19.2-12.3,26.3c-2.8,3-6.9,4.8-8.5,8.7c-0.7,5.2,1.3,10.3,3.1,15.1
	c1.6-2.5,2.9-5.3,4.6-7.7c10.4-14.2,27.8-21.6,44.9-23c1.5,0.1,3.5-0.3,4.2,1.5c-0.6,7-3.6,13.5-7.5,19.2
	c-5.9,9.3-14.3,16.9-23.9,22.1c-6.5,3.7-13.8,5.5-19.9,9.8c-0.1,5.8,0.8,11.6,1.7,17.4c4.1-4,5.9-9.6,9.7-13.8
	c3.6-4,7.6-7.8,12.1-10.8c5.3-3.5,11.5-6.3,18-5.1c0.3,3.9-1.8,7.4-3.4,10.8c-4,8.5-8.5,16.7-13,24.9c-4.9,8.4-10.8,16.7-19.4,21.6
	c-3,1.7-6.7,2.3-9.2,4.9c-2.4,2.7,0.1,6.2,0.3,9.2c1.1,9.8-1.8,19.6-5.8,28.4c-4.9,10.1-11.1,19.5-16.9,29c-1.5,2.6-4,4.3-6.6,5.7
	c-4.3-6.1-4.8-13.9-4.1-21.1c1.3-10.2,5.1-19.8,9.4-29c-2,0.5-3.9,1.3-5.6,2.5c-3.7,2.6-8.2,3.7-12,5.9c0.8,9.9,2.8,19.8,1.6,29.8
	c-0.8,11.5-5,22.7-11.9,32c-2.7,3.9-6.7,6.9-11.4,7.7c-2.7-4.1-4.5-8.8-6-13.4c-3.2-10.6-2.1-21.9,1.1-32.4
	c1.2-4.7,3.7-8.9,4.4-13.7c-4.6,0.8-9.5,1.8-13.2,4.7c-2,3.3-1.3,7.4-2.4,10.9c-3,9.6-8.4,19-17,24.6c-7.1,4.9-16.4,8.8-25,6
	c-2.4-4.5,1.4-8.9,2.9-13.1c3.7-9.4,9.5-17.7,15.3-25.8c-10.7-0.6-20.4,4.7-30.6,6.8c-9.6,1.8-19.5-1.6-27-7.7c-1.5-1.3-3-2.9-2.6-5
	c2.7-3.1,7.2-3.3,10.8-4.5c7.5-2.3,16-3,23.3,0.2c3.5,1.2,6.3,3.8,9.6,5.2c6,0.4,12.1-0.9,17.6-3.2c-0.2-2-2.6-2.4-4-3.4
	c-7.3-3.5-14.5-7.7-19.9-14c-4.1-4.9-8.9-10.7-7.5-17.6c2.8-0.7,5.7-0.8,8.5,0c16.1,5,30.8,15.8,38.2,31.2c6.4,1.4,12.6-1.8,18.4-4
	c1.5-1,4.7-1.6,4.1-4c-5.1-1.9-10.2-3.4-15.3-5.1c-5.6-2-10.1-5.8-14.8-9.2c-7.1-5.3-13.3-12.5-15.1-21.4c0-1.6-0.8-3.9,0.5-5.2
	c4.9-1,9.2,2.1,13.7,3.6c5.8,1.9,12.1,2.6,17.7,5.2c11,4.5,20.8,11.8,27.9,21.3c1.3,1.7,2.6,3.8,4.7,4.7c3.9-0.9,7.2-3.2,10.8-4.8
	c6.7-3.1,13.1-6.7,18.2-12.1c-3.7-1-7.5-0.9-11.2-1.4c-15.3-2.7-29.7-10.4-40.3-21.7c-2.9-3.3-6.8-6.4-7.2-11
	c7.9-1.8,15.1,3.7,23,2.1c-2.7-5.4-7.9-8.7-12.4-12.5c-2.2-1.5-1.9-5.7,1.3-5.6c10.7-0.5,21.3,2.7,30.7,7.6
	c6.5,3.2,12.9,6.8,18.3,11.8c2.9,2.6,4.6,6.7,8.4,8.3c1.5-5.9,1-12.1,0.8-18.2c-0.6-5.1-0.8-10.5-2.9-15.3c-7.5-0.9-15.2-1.3-22.3-4
	c-7.4-2.6-14.1-7.1-20.1-12c-2.9-2.4-5.5-5-8-7.7c-0.4,0.2-1.2,0.6-1.5,0.8c0.2-0.4,0.5-1.2,0.6-1.6c-2.4-3.4-6.3-5.1-9.4-7.6
	c-0.4-1.3-0.2-2.6-0.3-3.9c7.1-4.3,15.9-3.5,23.7-2c3.9,1.2,7.8,2.5,11.4,4.3c8.8,4.2,16.3,10.7,24.2,16.3c0.2-3.8-0.5-7.6-1.8-11.2
	c-1.7-4.5-2.4-9.5-5.4-13.4c-3.8,0.7-7.6,0-11.4,0.6c-4-1.1-8.1-1.8-12.1-3c-6.4-2.5-12.8-5.5-18.3-9.7c-3.6-2.7-7.6-5.3-9.3-9.7
	c4.8-4.5,11.7-3.5,17.8-3.5c7.1-0.2,13.7,3.1,19.7,6.6c3.2,1.9,6.3,3.8,9.8,5.2c-1.5-5.7-2.3-11.6-5.2-16.8c-0.3-0.9-0.7-1.7-1-2.6
	c-3.7-2.2-7.9-3.8-10.8-7.1C1756.5,16.7,1754.9,8,1754.1,0z"/>
<path fill="#8CC63E" stroke="#8CC63E" stroke-width="9.375000e-002" d="M1296.6,9.8c1.3,0,3-0.8,4,0.5c3.9,4.2,5.9,9.8,8.4,14.9
	c2.3,4.5,3.3,9.7,3.3,14.7c0,5.1-4.3,9.4-3.1,14.5c0.5,5.5,4.3,9.8,7.4,14.2c0.2-0.4,0.5-1.2,0.6-1.6c2.1-4.7,2.5-9.9,4.1-14.7
	c3-8.1,8.3-15.4,15.1-20.8c1.8-1.4,4.2-1.5,6.4-1.5c1.6,2.2,1.6,5.2,1.8,7.9c0.6,11.7-4.8,22.5-9.6,32.8c-2.3,2.8-4.6,5.6-6.9,8.3
	c0.1,0.4,0.1,1.1,0.2,1.5c-0.3-0.2-0.9-0.5-1.2-0.7c-1.4,1.3-2.8,2.5-4.2,3.8c2.5,6.5,6.6,12.1,10.5,17.7c1,0.1,2,0.2,3.1,0.3
	c1-4,0.8-8.1,1.2-12.1c1.1-4.4,2.3-8.8,2.9-13.3c3.6-7.9,6.6-16.5,13.1-22.5c3.3-3.3,8-6.3,12.8-4.7c0.8,6.7-1.4,13.2-1,19.8
	c0.2,8.6-0.1,17.4-3.1,25.6c-1.4,3.6-3.1,7.2-5,10.6c-2.8,4.7-6.2,9.1-9.3,13.6c4.6,7.7,10.2,15,17.5,20.4c1.3,1,3,1.4,4.6,2
	c0.8-4.7-0.4-9.5-0.5-14.2c0.2-4.4,0.6-8.8,1.4-13.1c0.9-3.9,2-7.7,3.4-11.5c2.7-7.4,6.9-14.1,11.4-20.4c1.1-1.8,3.1-2.5,5.1-2.6
	c3.1,7.3-0.3,15.4,2.6,22.7c6-5.2,6.8-14.1,13.2-18.9c5.7,11.3,4.9,24.4,1.9,36.4c-1.1,3.7-2.3,7.3-3.7,10.9
	c-0.5,1.4-0.9,2.8-1.2,4.2c-2.4,4.9-5.9,9.1-8.8,13.8c3.7,0,7.3-0.8,10.9-1.9c7.5-0.9,14.7-3.6,21.3-7.1l0-0.9
	c-0.3-5-0.4-10.1-1.4-15.1c0.7-7.2,1.6-14.4,4.5-21.1c3.5-9.6,10.6-17.2,14.5-26.6c1-1.7,1.7-4.4,4.1-4.3c4.4,2.8,5.7,8.3,7.2,13
	c0.8,6.5,0.8,13.2-0.2,19.7c-1,6-3.6,11.6-5,17.6c-2,3-3.1,6.5-4.8,9.7c0.7,0.3,2,1,2.6,1.3c5.6-2.4,11.3-4.9,16.1-8.7
	c0.9-0.7,2.1-1.6,1.7-2.9c-0.3-2.9-0.9-5.8-1.4-8.6h-0.8c1.4-4.3-0.1-9,0.7-13.4c-0.2-0.3-0.6-0.9-0.8-1.2l-0.4-0.5l1.2-0.5
	c1.3-5.3,2.5-10.7,5.3-15.6c2.5-4.6,4.1-10,8.6-13.2c3,2.7,5,6.3,6.3,10.1c1.2,5,1.4,10.3,1.2,15.4c-1,7.4-4.1,14.3-6.1,21.5
	c5.1-2,10.1-4.6,13.9-8.6c2.6-2.7,2.2-6.7,3-10.1c1.7-6.6,6.4-12.2,12.2-15.7c4.7-2.7,9.1-6.3,14.5-7.4c3.2,7.1,1.6,15.4-1.6,22.2
	c-3,5.9-8,11.3-14.5,13.1c-7.9,2.4-14.8,7.3-20.9,12.7c6.6,1.9,13.3,3.5,19.6,6.3c6,2.6,13,4.2,17.5,9.4c1.9,1.9,0.7,4.6,0,6.8
	c2.7,0.2,5.4,0.4,8.1,0.6c-3,0-6-0.3-8.9,0.1c-3.1,1.6-5.9,3.7-9.2,4.8c-8.3,2.7-17.3,2.2-25.6,0.2c-4-1-8.2-1.8-11.7-4.2
	c-4-2.6-7.4-6.2-11.8-8c-5.3,0.8-10.4,2.9-15,5.5c3.1,1.5,6.2,3,9.3,4.4c14.2,5.8,25.2,18.3,30.3,32.6c1.2,3.1,2.4,6.5,1,9.8
	c-7.6,1.1-15.1-1.2-22.1-3.9c-14.6-6.1-26.7-17.5-34.9-31c-1.5-2-3.2-5.2-6.2-4.1c-4.3,1.7-9.4,2.2-12.7,5.7
	c10.9,3.4,21.4,8.7,29.3,17c3.5,4,6.7,8.8,6.8,14.3c-6.6,1.4-12.6-2.1-18.9-3.1c-15.5-3.3-32-6.9-43.9-18.1
	c-3.1-2.5-4.9-6.3-8.3-8.4c-0.6-0.1-1.8-0.4-2.3-0.5c-12.3,7.3-27.2,5.9-40.6,2.8c-8.5-2.6-16.9-5.4-25.4-8.1c-3.3-1-6-3.2-8.1-5.8
	c1.5-1.8,2.9-3.7,5.1-4.7c7.6-4,16.3-5.3,24.8-4.9c6.1,0.1,12,2.6,18.1,2.4c-2-4.1-5.7-7-8.3-10.8c-1.2-1.2-2.6-3.5-4.5-2.4
	c-18.6,9.6-41.5,12-61.2,4.2c-3.8-1.9-9.2-4.2-9.1-9.3c6.2-4.7,12.5-9.6,20-12c12.1-4.5,25.2-3,37.7-1.8c-2.3-4.3-5.1-8.5-8.3-12.2
	c-7.8,0.4-15.9,1.2-23.5-1.3c-9.7-2.7-18-9.3-23.7-17.5c-2.4-4.3-5.5-9.5-3.6-14.5c2-1.9,4.9-1.3,7.3-0.9c7.4,1.5,14.9,2.4,22.1,4.7
	c3.6,1.1,6.9,3,10.5,4.2c0.3-8.2-6.1-14.3-9.9-20.9c-4.3-6.5-6.6-14.4-5.6-22.2C1291.5,20.1,1294.5,15.1,1296.6,9.8z"/>
<path fill="#8CC53E" stroke="#8CC53E" stroke-width="9.375000e-002" d="M769.8,0h12c1.4,4.9,4.1,9.4,5.7,14.2c0.7,5,1.9,10.3-0.4,15
	c-1.8,3.7-2.8,8.1-0.8,12c1.6,4,4.3,7.5,6.9,10.9c2.4-5.4,2.6-11.5,4.8-17c2.6-7.3,7.3-13.7,13-18.9c2.3-2.1,5.2-3.1,8.3-3.1
	c4.1,10.1,0.5,21.2-3.3,30.8c-3,8.2-8.1,15.7-14.7,21.4c-2.3,1.7-1,4.8,0.2,6.8c2.9,4.5,5.5,9.2,9.1,13.2c0.5,0.1,1.6,0.2,2.1,0.2
	c1-3.5,0.8-7.1,1.3-10.6c1.8-12.6,5.7-25.2,13.6-35.3c3.6-4.6,9-8.5,15.2-7.4c1.2,4.9-0.8,9.8-0.7,14.7c-1,9,0.7,18.3-2.2,27
	c-2.6,9.9-8.3,18.5-14.4,26.7c-1.2,1.4,0.1,2.9,1.2,3.8c1.1,3.7,3.7,6.6,6.1,9.5c3.9,4.5,8.3,8.6,13.8,11.1c0.6-2.5,0.6-5,0.1-7.4
	c-2.4-18.9,4.6-38,16.1-52.8c1.2-1.9,3.4-1.7,5.3-1.2c1.8,6.9,0.1,14.1,1.4,21c0.5-0.1,1.4-0.2,1.9-0.3c3.8-4.9,5.9-10.8,9.4-15.9
	c0.6-1,1.8-1.1,2.8-1.5c7.7,16.7,2.6,35.6-3.9,51.7c-1.6,4.9-5.8,8.1-7.9,12.8c11-0.6,21.9-3.9,31.8-8.8c0.3-7.6-1.8-15.2-0.5-22.8
	c1.1-8,3.7-15.9,7.9-22.8c2.5-4.5,5.5-8.7,8-13.2c1.8-3.3,3-7.2,5.9-9.8c6.3,4.8,8.1,13.3,8.6,20.8c0.7,14.8-5.9,28.5-11.5,41.8
	c7.9-2.2,15.4-6,21.5-11.5c-3.2-12.8-3.5-27,2.5-39.1c2.8-5.2,4.5-11.2,9.1-15.1c7.4,5.8,8.1,16.2,7.6,24.9
	c-0.2,7.8-4.4,14.7-5.6,22.3c4.9-2.2,10-4.6,13.6-8.7c2.8-2.8,2.1-7.1,3.3-10.6c1.5-6.8,6.9-11.9,12.7-15.5
	c4.2-2.6,8.4-5.1,12.9-7.2c3.6,3.9,3.1,9.8,2,14.6c-2.1,9.1-7.8,18.4-17.3,21c-8,2.4-14.9,7.3-21.1,12.8c6.6,1.6,13.1,3.2,19.3,6
	c6.3,2.7,13.6,4.2,18.1,9.7c1.8,1.8,0.8,4.8-0.7,6.4c-3.6,3.8-8.9,5.4-13.7,7c3.4,5.1,5.9,11,4.7,17.3c1.3,5.8,7,9.1,10.7,13.4
	c1.8-6.8-0.3-14.1,2.2-20.8c1.8-4.8,4.3-9.4,7.8-13.1c1.1-1.3,2.9-1.2,4.4-1.5c3.2,8.6,3,18.1,1.5,26.9c-1,6.2-4.3,11.7-7.2,17.1
	c0.2,0.5,0.6,1.6,0.7,2.2c4.1,4.4,7.6,9.6,13,12.5c-0.2-3.6-0.8-7.2-1.4-10.7c-0.7-9.4-0.7-19.3,3.6-28c2.1-4.1,4.8-8.6,9.4-9.9
	c0.4,0.4,1.3,1.1,1.8,1.4c0.1,2.8,0.2,5.6,1,8.3c3,9.9,5.3,20.4,3,30.7c1.3,0.3,2.6,0.6,3.9,0.9c-1.4-0.1-2.7,0-4.1-0.1
	c-0.9,3.7-1.9,7.4-3.9,10.6c2.1,0,4.3,0,6.4,0.3l0.7,0.7c-2.4,0-4.9-0.1-7.3-0.2c-0.6,1.5-1.1,3-1.7,4.5
	c6.5,6.2,14.1,11.5,22.5,14.6c-1-6-3.6-11.6-3.8-17.7c0.3-3.9,0.3-7.8,0.5-11.6c0.7-7.8,3.1-15.4,7-22.2c1.3,0,2.6,0,4,0
	c1.1,5.3,1.4,10.8,4.1,15.7c4.2-4.9,3.5-11.9,7.3-17c1,1,2.3,1.8,2.8,3.1c3.1,7.2,4.7,15,4.6,22.8c0.7,0.1,2,0.4,2.7,0.6l-0.6,0
	c-0.5,0-1.4,0-1.9,0c-0.2,3.7-0.6,7.3-1.1,11c1.5,0.2,3.1,0.5,4.6,0.7c-1.6,0-3.3,0-4.9,0.1c-1,5.5-3.5,10.5-5.4,15.7
	c5-0.4,9.2-3.4,13.3-5.9c3.1-2.2,6.4-4,9.3-6.5c0-0.7,0.1-2,0.2-2.7c-1-2.5-2.2-5-2.8-7.6c-0.1-3.6-0.6-7.2-2.2-10.5
	c-0.6-7.3-0.1-14.7,2.3-21.7c1.7-4.5,1.7-9.4,3-13.9c0.5-2.8,4.1-2.1,5.4-0.5c7.3,7.1,8.9,17.7,9.2,27.4c0.3,4.1-0.8,8-1.6,11.9
	c-0.5,2.4-1,4.8-1.4,7.2c2.1-0.8,4.1-1.7,5.8-3.1c2.8-2.4,5.7-4.7,7.8-7.8c1.4-2.2-0.3-4.4-1.2-6.4c-5.8-10.6-6.6-23.3-4.1-35
	c0.5-2.1,1.8-4,2.9-5.9c2,0.5,3.9,1.2,5.2,2.9c3,4.1,4.8,9,5.8,13.9c1.4,6.4,0.3,12.9,0.6,19.3c4.4-4,10.8-8.4,10-15.2
	c-0.4-6,1.2-12.2,5.2-16.7c2.8-3.1,5.7-6.1,8.8-8.9c1-1.1,2.6-0.9,4-1.2c2.7,8.1,2,17.9-3.6,24.7c-5.2,6.8-13.6,10.8-17,18.9
	c10.4-0.5,20.9-1.1,31.1,1.2c2.5,0.3,2.1,3.4,1.6,5.1c-2.3,4.7-6.4,8.3-10.9,10.9c-8.6,4.6-19,5.5-28.1,2.3
	c-2.4-0.8-4.9-2.7-7.5-1.8c-3.3,1.7-5.8,4.6-8,7.5c6.5,0.5,12.8,2.2,19,3.8c8.7,3.7,16.5,9.7,21.3,17.8c0.7,1.2,0.6,3-0.7,3.7
	c-5.1,3.8-11.8,3.4-17.7,3.1c-13.4-0.6-25.2-8.2-35.3-16.3c-1.2-1.3-3.2-1.1-4.4,0.1c-3.4,2.7-7.1,5-11,6.9
	c11.3,1.9,23.7,2.8,32.7,10.7c1.8,1.7,4.3,3.8,3.7,6.5c-3.4,2.5-7.8,1.7-11.7,1.9c-12.8,0-26.3,1.4-38.1-4.4c-3.4-1.4-6-4.1-8.8-6.4
	c-2.6-1.4-5,1-6.9,2.4c-7,5.6-16.4,6.5-25.1,6.4c-10.3-0.3-20.8-0.1-30.9-2.1c0.3-1.6,0.4-3.5,1.6-4.7c5-5.6,12.2-8.6,19.3-10.2
	c4.9-1.2,10.1-0.7,15.1-1.4c-3.4-2.8-6.6-5.8-10.5-7.9c-3.7,0.1-6.4,3.2-9.4,5.1c-7.5,6.2-16.8,10-26.3,11.6
	c-7.3,0.9-15.3,1.3-21.9-2.6c1.2-4.3,4.8-7.2,7.6-10.5c8.5-9.1,20.8-15.2,33.4-14.4c-0.3-3.1-2.9-4.8-5.1-6.5
	c-1.1-1.9-3.9-3.3-5.4-0.9c-4.3,0.6-8.4,2.7-12.8,2.6c-11,0.7-22.4-3.4-29.8-11.8c-0.5-1.1-1-2.3-1.4-3.4
	c-11-1.6-21.7-5.6-30.7-12.3c-4-2.9-7.5-6.4-11.2-9.7c-1.9-2.5-4-4.8-5.9-7.3c-2.6-3.5-4.3-7.9-7.8-10.6c-5.1,0.5-10.1,2.6-14.8,4.8
	c0,0.3,0,1,0,1.3c3.1,1.4,6.5,1.9,9.6,3.4c3.6,1.7,7,4,10.7,5.6c6.3,5.8,14.8,11.8,14.7,21.3c-0.2,0.3-0.7,0.8-1,1
	c-1.7,1-3.7,0.1-5.5-0.2c-12.9-3.9-26.5-5.4-38.9-10.6c-8.3-3.4-15.9-8.6-21.5-15.6c-1.7-2.1-4.3-5.3-7.3-3.4
	c-4.7,2.5-9.8,4.1-15.1,4.5c-14.7,1.4-28.9-3.7-42.6-8.3c-4.4-1.6-9.4-2.4-13-5.7c-1.5-1-1.7-3.4-0.3-4.6c3.6-3.3,8.3-4.8,12.9-6
	c10.8-2.9,22.1-1.1,32.7,1.7c0.4-3.4-2.5-5.5-4.7-7.5c-1.7-2.6-3.6-5.1-6.1-7.1c-0.5,0.3-1.4,0.8-1.9,1.1
	c-18.7,9.4-41.4,11.5-61,3.6c-3.7-1.7-7.3-4.2-9-8.1c3.7-4,8.2-7.1,12.9-9.8c10.3-5.9,22.5-7,34.1-6.3c3.6,0.6,7.3,1.2,11,1.1
	c-2-4.4-4.8-8.5-8.3-11.9c-3.8-0.9-7.8,0.7-11.6,0.6c-10.2-1-20.5-4.2-28.1-11.3c-2.8-2.8-5.5-5.7-7.7-9c-2.2-4.6-5.6-9.9-2.7-14.9
	c6.3-0.5,12.3,1.3,18.5,2.2c5.4,1.1,10.8,2.6,16,4.5c1.7,1,3.4,1.9,5.2,2.7c0-2.9-0.3-5.9-1.8-8.5c-1.7-3-3.5-5.8-5.4-8.6
	c-6.2-8.4-10.4-19-8.1-29.6C768.5,4.1,769.1,2,769.8,0 M926.2,125.8c6.1,3.5,12.9,5.5,18.7,9.5c9.7,7.1,17.9,17.1,21.1,28.8l0.3,0.2
	c-0.1,0.5-0.4,1.4-0.5,1.9c1.4,1.5,3.3,1.4,5,0.4c7.9-0.1,15.8-0.7,23.8-0.2c-3.1-6.2-9.2-9.9-15.2-13.1c-6.9-3.8-8.9-12.4-9.2-19.7
	c-3.5-0.3-6.9-1.4-10.3-2.3c-5.8-1.3-10-5.5-14.7-8.8c-1.6-1-3.1-2.6-5.1-2.3C935.3,121.9,930.6,123.5,926.2,125.8z"/>
<path fill="#FFFCD6" stroke="#FFFCD6" stroke-width="9.375000e-002" d="M781.8,0h972.3c0.8,8,2.4,16.7,8.4,22.5
	c3,3.3,7.1,4.9,10.8,7.1c0.3,0.9,0.6,1.7,1,2.6c-1.1,4-2.8,7.9-4.6,11.6c-6.1-3.4-12.6-6.8-19.7-6.6c-6,0.1-13-0.9-17.8,3.5
	c1.7,4.4,5.8,6.9,9.3,9.7c5.5,4.2,11.9,7.2,18.3,9.7c-1.6,2.2-3.2,4.3-4.9,6.4c-7.8-1.5-16.6-2.2-23.7,2c0,1.3-0.1,2.6,0.3,3.9
	c3.2,2.5,7,4.2,9.4,7.6c-0.2,0.4-0.5,1.2-0.6,1.6c-28.3,24.7-63.3,40.4-99.3,50.1c-10.7,3-21.5,5.1-32.4,7.2
	c-2.5,0.4-4.9,0.7-7.4,0.6c-3.4-2.3-7-4.8-11.2-5.2c-7.5-1-15.9,1.1-20.6,7.3c-0.4,0.5-1.2,1.5-1.6,2c-11.9,0.4-23.8,0.9-35.7,0.5
	c-2.7-0.1-5.4-0.4-8.1-0.6c0.7-2.2,1.9-4.8,0-6.8c-4.5-5.1-11.5-6.8-17.5-9.4c-6.3-2.8-13-4.4-19.6-6.3c6.2-5.4,13-10.3,20.9-12.7
	c6.5-1.8,11.6-7.2,14.5-13.1c3.3-6.8,4.8-15.1,1.6-22.2c-5.5,1-9.9,4.6-14.5,7.4c-5.8,3.4-10.6,9-12.2,15.7c-0.9,3.4-0.4,7.4-3,10.1
	c-3.8,4-8.8,6.5-13.9,8.6c2-7.2,5-14.1,6.1-21.5c12.5-11.9,23.1-25.8,30.8-41.2c6.8-14.1,10.9-29.7,10.6-45.4c-3.8,0-7.6,0-11.4-0.1
	c0.1,26.9-13.2,52-31.2,71.3c-1.2-3.8-3.2-7.4-6.3-10.1c-4.5,3.2-6.1,8.6-8.6,13.2c-2.7,4.8-4,10.2-5.3,15.6l-1.2,0.5
	c-1.8,0.7-3.6,1.4-5.4,2.1c-0.9-4.9,1.6-11-2.4-14.9c-1.5-4.7-2.8-10.2-7.2-13c-2.4-0.1-3.1,2.6-4.1,4.3c-3.9,9.4-11,17-14.5,26.6
	c-2.9,6.7-3.8,13.9-4.5,21.1c-0.7,0.3-2.2,1-2.9,1.3c-4.9-1.2-9.6-3.4-14.3-5.2c3-12,3.8-25.1-1.9-36.4c-6.4,4.8-7.2,13.8-13.2,18.9
	c-2.9-7.3,0.5-15.4-2.6-22.7c-2.1,0-4,0.8-5.1,2.6c-4.5,6.4-8.8,13.1-11.4,20.4c-4.1-2.5-8.2-5.1-12.1-7.8c3-8.2,3.3-17,3.1-25.6
	c-0.4-6.7,1.8-13.2,1-19.8c-4.8-1.6-9.5,1.4-12.8,4.7c-6.6,6-9.5,14.6-13.1,22.5c-1.9-1.8-3.8-3.7-5.6-5.6
	c4.8-10.3,10.2-21.1,9.6-32.8c-0.2-2.6-0.2-5.6-1.8-7.9c-2.2,0-4.6,0.1-6.4,1.5c-6.8,5.4-12.1,12.6-15.1,20.8
	c-8.3-13.7-13.3-29.5-13.3-45.5c-3.8,0-7.7,0-11.5,0c0,0.7,0,2.2,0,2.9c-2.1,5.3-5.1,10.3-5.3,16.1c-1,7.8,1.3,15.6,5.6,22.2
	c3.9,6.6,10.2,12.7,9.9,20.9c-3.6-1.2-6.9-3.1-10.5-4.2c-7.2-2.2-14.7-3.2-22.1-4.7c-2.4-0.4-5.3-1-7.3,0.9
	c-1.9,5,1.2,10.2,3.6,14.5c5.6,8.2,14,14.8,23.7,17.5c7.6,2.6,15.6,1.7,23.5,1.3c3.2,3.8,5.9,7.9,8.3,12.2
	c-12.5-1.2-25.6-2.7-37.7,1.8c-7.5,2.5-13.8,7.3-20,12c-0.1,5.1,5.2,7.4,9.1,9.3c19.7,7.8,42.5,5.4,61.2-4.2
	c1.9-1.1,3.3,1.2,4.5,2.4c2.6,3.8,6.3,6.7,8.3,10.8c-6.2,0.2-12-2.3-18.1-2.4c-8.5-0.4-17.3,0.9-24.8,4.9c-2.1,1.1-3.6,3-5.1,4.7
	c2.1,2.7,4.8,4.9,8.1,5.8c8.5,2.7,16.9,5.5,25.4,8.1c-45,13.2-91.4,20.9-138.2,24.3c-2.6-4.8-8.3-6.8-13.5-5.8
	c-4.9,0.2-8.8,3.3-11.6,7.1c-3,0.1-5.9,0.1-8.9,0.4c4.5-2.6,8.6-6.2,10.9-10.9c0.5-1.8,0.9-4.9-1.6-5.1c-10.2-2.3-20.7-1.7-31.1-1.2
	c3.4-8.1,11.9-12.1,17-18.9c5.6-6.8,6.2-16.6,3.6-24.7c-1.4,0.3-2.9,0.1-4,1.2c-3.1,2.8-6,5.8-8.8,8.9c-4,4.5-5.6,10.7-5.2,16.7
	c0.9,6.8-5.5,11.2-10,15.2c-0.3-6.4,0.7-12.9-0.6-19.3c-1-4.9-2.8-9.8-5.8-13.9c-1.2-1.7-3.2-2.5-5.2-2.9c-1.1,1.9-2.4,3.7-2.9,5.9
	c-2.5,11.7-1.8,24.4,4.1,35c0.9,1.9,2.7,4.2,1.2,6.4c-2.1,3.1-5,5.4-7.8,7.8c-1.7-0.1-3.5-0.2-5.2-0.3c0.2-1.3,0.5-2.5,0.7-3.8
	c0.9-3.9,1.9-7.9,1.6-11.9c-0.3-9.7-1.9-20.4-9.2-27.4c-1.4-1.7-4.9-2.3-5.4,0.5c-1.3,4.6-1.3,9.4-3,13.9c-2.4,7-2.9,14.4-2.3,21.7
	c0.1,2,0.1,4,0.2,6c-2.9-0.2-5.8-0.2-8.8-0.2c-0.7-0.1-2-0.4-2.7-0.6c0-7.8-1.5-15.6-4.6-22.8c-0.5-1.3-1.9-2.1-2.8-3.1
	c-3.8,5.1-3.2,12.1-7.3,17c-2.7-4.8-3-10.4-4.1-15.7c-1.3,0-2.6,0-4,0c-3.8,6.8-6.2,14.4-7,22.2c-3.2-0.4-6.3-0.7-9.4-1.1
	c-1.3-0.3-2.6-0.6-3.9-0.9c2.3-10.3,0-20.8-3-30.7c-0.8-2.7-0.9-5.5-1-8.3c-0.4-0.4-1.3-1.1-1.8-1.4c-4.7,1.3-7.4,5.8-9.4,9.9
	c-4.3,8.6-4.3,18.6-3.6,28c-3.9-0.5-7.8-1.2-11.6-1.8c-0.2-0.5-0.5-1.6-0.7-2.2c2.9-5.5,6.2-10.9,7.2-17.1
	c1.5-8.9,1.7-18.4-1.5-26.9c-1.5,0.3-3.3,0.2-4.4,1.5c-3.6,3.7-6,8.4-7.8,13.1c-2.5,6.7-0.4,14-2.2,20.8c-3.7-4.3-9.3-7.6-10.7-13.4
	c1.2-6.2-1.3-12.2-4.7-17.3c4.9-1.6,10.1-3.1,13.7-7c1.5-1.7,2.5-4.6,0.7-6.4c-4.5-5.5-11.9-7-18.1-9.7c-6.2-2.8-12.8-4.4-19.3-6
	c6.2-5.4,13.1-10.3,21.1-12.8c9.4-2.6,15.2-12,17.3-21c1-4.8,1.5-10.7-2-14.6c-4.5,2.1-8.7,4.6-12.9,7.2
	c-5.7,3.5-11.1,8.7-12.7,15.5c-1.1,3.5-0.4,7.8-3.3,10.6c-3.6,4.1-8.7,6.5-13.6,8.7c1.3-7.6,5.5-14.5,5.6-22.3
	c0.5-8.7-0.2-19-7.6-24.9c-4.6,3.9-6.3,9.9-9.1,15.1c-6,12.1-5.7,26.3-2.5,39.1c-6.1,5.5-13.6,9.3-21.5,11.5
	c5.6-13.3,12.2-27,11.5-41.8c-0.5-7.5-2.3-16-8.6-20.8c-3,2.6-4.1,6.5-5.9,9.8c-2.5,4.5-5.5,8.7-8,13.2c-4.2,7-6.8,14.8-7.9,22.8
	c-1.3,7.6,0.8,15.2,0.5,22.8c-9.9,4.8-20.8,8.1-31.8,8.8c2-4.6,6.3-7.9,7.9-12.8c6.5-16.1,11.6-35.1,3.9-51.7
	c-1,0.4-2.3,0.5-2.8,1.5c-3.5,5.1-5.5,11-9.4,15.9c-0.5,0.1-1.4,0.2-1.9,0.3c-1.3-7,0.4-14.1-1.4-21c-1.9-0.5-4.2-0.7-5.3,1.2
	c-11.5,14.8-18.5,33.9-16.1,52.8c-6.9-4-13.5-8.5-20-13.2c-1.1-0.9-2.3-2.4-1.2-3.8c6-8.1,11.8-16.8,14.4-26.7
	c2.8-8.7,1.2-18,2.2-27c0-4.9,1.9-9.8,0.7-14.7c-6.2-1.1-11.5,2.9-15.2,7.4c-7.9,10.1-11.9,22.7-13.6,35.3
	c-0.5,3.5-0.3,7.2-1.3,10.6c-0.5-0.1-1.6-0.2-2.1-0.2c-3.6-4-6.2-8.8-9.1-13.2c-1.2-2-2.5-5.1-0.2-6.8C808,59.7,813,52.2,816.1,44
	c3.8-9.6,7.4-20.7,3.3-30.8c-3.1,0-6,1-8.3,3.1c-5.7,5.2-10.5,11.6-13,18.9c-2.2,5.5-2.5,11.5-4.8,17c-2.6-3.4-5.3-6.9-6.9-10.9
	c8-9.6,13.5-21.6,13.6-34.3c-3.8,0-7.6,0-11.4,0c-0.3,2.5-0.6,4.9-1,7.4C785.9,9.4,783.2,4.9,781.8,0z"/>
<path fill="#FFFCD6" stroke="#FFFCD6" stroke-width="9.375000e-002" d="M1193.3,196.3c31.4-2.1,62.7-6.4,93.7-12.1
	c-1.8,1.4-3.5,2.8-5.2,4.3c1.5,6.3,2.3,13.8-1.8,19.4c-4.5,5.8-12,7.8-18.9,9.1c-12.7,2.5-25.9,1.8-38.2,5.7
	c-9.7,9.5-10.6,24.5-8.1,37.2c2.4,11.1,5,22.5,11.4,32c3.3,5.5,7.8,10.5,9,17c0.6,5.2-3.5,9-6.9,12.2c-5.1,4-7.4,12.2-14.7,12.6
	c0.2-10.2-1.8-20.4-5.3-30c-7-19.9-18.9-38.5-20.6-59.9c-0.8-6,0.7-11.9,1.1-17.9c0.5-6.8-3.2-13.3-1.6-20.1
	C1187.8,202,1190.8,199.3,1193.3,196.3z"/>
<path fill="#FFFCD6" stroke="#FFFCD6" stroke-width="9.375000e-002" d="M263.7,1014c5.8-1.6,12.4-2.7,18.2-0.7
	c6.1,4.8,6.3,13.6,7.5,20.7c0.3,12,1.8,24,0.5,36c-0.7,12,0.3,24-1.2,35.9c-0.4,8.3,0,16.7-0.9,25.1c-0.5,13.7,0.3,27.4-1.2,41
	c-0.2,8.7-0.1,17.4-0.3,26c-1.2,10.7-0.3,21.4-0.6,32.1c0.1,16-0.5,32.1,0.1,48.1l-1.1,0c-31.7-0.1-63.5,0.2-95.2-0.1
	c0.3-13.3,0-26.7,0.2-40.1c-0.2-5.8,0.9-11.5,0.9-17.3c-0.3-9.9,1.8-19.7,2.1-29.6c0.1-6.4,2.1-12.6,2.1-19c1-8.4,2.9-16.6,3.8-25
	c5.4-29.4,12.4-58.6,21.8-87.1c1.2-4,2.4-7.9,3.7-11.9c2-5,3.1-10.3,5.3-15.3c2.1-4.9,4.3-10.6,9.7-12.7
	C246.9,1017.2,255.5,1016.3,263.7,1014z"/>
<path fill="#FFFCD6" stroke="#FFFCD6" stroke-width="9.375000e-002" d="M161.8,1109.6c1.6-7.7,3.1-16.8,9.7-21.9
	c1.3,4.6,1.2,9.4,0.9,14.2c-1.4,21.7-14.5,41.1-14.1,63.1c-0.3,6.9,2.5,13.4,4.4,19.9c6,21.5,7.9,43.9,9.6,66.1
	c0.4,6.7-0.1,13.5,0.9,20.2c0.1,2.3,0.2,4.5,0.3,6.8l-1.1,0.1c-14,0.1-28.1-0.1-42.1,0c0-6.7-0.3-13.5,0.7-20.2
	c2.8-42.5,12.4-84.3,24.5-125C157.6,1125.2,160.5,1117.6,161.8,1109.6z"/>
<path fill="#F4FFD2" stroke="#F4FFD2" stroke-width="9.375000e-002" d="M766.1,6.7c0.5-0.1,1.4-0.4,1.8-0.6
	c-2.3,10.6,1.9,21.1,8.1,29.6c-1.3,1.2-2.6,2.4-3.9,3.6C768.3,28.9,766,17.8,766.1,6.7z"/>
<path fill="#0F6329" stroke="#0F6329" stroke-width="9.375000e-002" d="M306.5,6.9c1.6,0,3.3-0.1,4.9-0.1
	c-1.2,6.7-0.1,13.7,2.9,19.8c3.3,7.4,9.6,13.1,11.8,21.1C315,37.1,306.5,22.7,306.5,6.9z"/>
<path fill="#036735" stroke="#036735" stroke-width="9.375000e-002" d="M754.5,6.8c3.9,0,7.8,0.2,11.6-0.1
	c-0.1,11.1,2.2,22.2,6,32.6c1.3-1.2,2.6-2.4,3.9-3.6c1.9,2.8,3.8,5.6,5.4,8.6c0.2,2.5-1.8,4.1-3.3,5.7c-5.2-1.9-10.6-3.4-16-4.5
	C757.4,33.2,754.4,20.1,754.5,6.8z"/>
<path fill="#036735" stroke="#036735" stroke-width="9.375000e-002" d="M1405.3,130.5c1.3-3.6,2.6-7.2,3.7-10.9
	c4.7,1.8,9.3,4,14.3,5.2c0.7-0.3,2.2-1,2.9-1.3c1,5,1.1,10,1.4,15.1c-0.8-0.2-2.5-0.7-3.3-0.9c-5.9,3.1-12,6-18,9
	c-3.5,1.1-7.2,1.9-10.9,1.9c2.9-4.6,6.5-8.8,8.8-13.8c1.6-0.9,3.3-1.6,5-2.4C1407.8,131.7,1406.5,131.1,1405.3,130.5z"/>
<path fill="#056636" stroke="#056636" stroke-width="9.375000e-002" d="M788.5,6.9c3.8,0,7.6,0,11.4,0c0,12.7-5.6,24.7-13.6,34.3
	c-2-3.9-1-8.3,0.8-12c2.3-4.8,1.1-10.1,0.4-15C787.9,11.8,788.3,9.4,788.5,6.9z"/>
<path fill="#046732" stroke="#046732" stroke-width="9.375000e-002" d="M1296.6,6.9c3.8,0,7.7,0,11.5,0c0,16.1,5.1,31.9,13.3,45.5
	c-1.6,4.8-2,10-4.1,14.7c-2.8-4.1-5.6-8.3-8.1-12.6c-1.3-5.1,3.1-9.4,3.1-14.5c-0.1-5.1-1-10.2-3.3-14.7c-2.5-5.1-4.4-10.7-8.4-14.9
	c-1-1.3-2.7-0.5-4-0.5C1296.6,9.1,1296.6,7.6,1296.6,6.9z"/>
<path fill="#036736" stroke="#036736" stroke-width="9.375000e-002" d="M1485.3,78.1c18-19.3,31.3-44.4,31.2-71.3
	c3.8,0,7.6,0.1,11.4,0.1c0.3,15.7-3.9,31.3-10.6,45.4c-7.6,15.5-18.3,29.4-30.8,41.2C1486.7,88.4,1486.5,83.2,1485.3,78.1z"/>
<path fill="#036736" stroke="#036736" stroke-width="9.375000e-002" d="M1740.4,81.8c0.4-0.2,1.2-0.6,1.5-0.8c2.6,2.7,5.1,5.4,8,7.7
	c-9.3,8.4-19.3,15.9-29.9,22.5c-32.7,20.1-69.8,32.2-107.4,39c-6.4,1-12.7,2.1-19.1,2.7c-32.4,4.2-65.2,4-97.6,0.4
	c6.8-0.6,14.2-0.1,20.3-3.7c-0.5-0.1-1.6-0.2-2.1-0.2c3.3-1.1,6.1-3.2,9.2-4.8c2.9-0.4,5.9-0.1,8.9-0.1c11.9,0.4,23.8-0.1,35.7-0.5
	c3.7,0.6,7.4,0.6,11.2,0.1c7.1-0.9,14.2-1.2,21.2-2.6c2.8-0.6,6.1-0.1,8.4-2.2c10.8-2.1,21.7-4.3,32.4-7.2
	C1677,122.2,1712.1,106.5,1740.4,81.8z"/>
<path fill="#036736" stroke="#036736" stroke-width="9.375000e-002" d="M1336.6,160c13.3,3.1,28.3,4.5,40.6-2.8
	c0.6,0.1,1.8,0.4,2.3,0.5c-26.6,10.2-54,17.9-81.7,24.1c-3.5,1.1-7.2,2.1-10.9,2.4c-31,5.7-62.2,10-93.7,12.1
	c-8-0.3-15.8,1.6-23.7,1.2c-0.3,0.3-0.9,0.9-1.2,1.2l0.3-1.2c-9.5,0.4-19.1,0.3-28.6,0.5c-6.3-1.6-12.5-3.3-19-3.8
	c2.2-2.9,4.7-5.8,8-7.5c2.6-0.9,5,1,7.5,1.8c9.2,3.1,19.6,2.3,28.1-2.3c2.9-0.3,5.9-0.3,8.9-0.4c8.4,0,16.7,0,25-1.4
	C1245.2,180.9,1291.6,173.2,1336.6,160z"/>
<path fill="#056633" stroke="#056633" stroke-width="9.375000e-002" d="M1778.3,6.9c3.8,0,7.7,0,11.5,0c0.1,10.9-1.9,21.8-5.6,32.1
	c-1-2-1.7-4.1-2.1-6.3C1780,24.2,1783.3,14.7,1778.3,6.9z"/>
<path fill="#06682E" stroke="#06682E" stroke-width="9.375000e-002" d="M1774.3,32.2c2.9,5.2,3.7,11.1,5.2,16.8
	c-3.4-1.4-6.6-3.3-9.8-5.2C1771.5,40.1,1773.2,36.3,1774.3,32.2z"/>
<path fill="#086731" stroke="#086731" stroke-width="9.375000e-002" d="M328.5,34.5c0.6,0.4,1.8,1,2.3,1.4c2.6,2.9,5.4,5.6,8.4,8.2
	c-0.9,2.5-0.5,6-2.7,7.7C332.5,46.7,328.6,41.1,328.5,34.5z"/>
<path fill="#E9FFBE" stroke="#E9FFBE" stroke-width="9.375000e-002" d="M781.5,44.3c1.5,2.5,1.8,5.5,1.8,8.5
	c-1.8-0.8-3.5-1.8-5.2-2.7C779.7,48.4,781.7,46.8,781.5,44.3z"/>
<path fill="#036834" stroke="#036834" stroke-width="9.375000e-002" d="M346.8,63.8c2.8-2.7,5.2-5.8,7.5-8.9
	c2.1,1.3,4.3,2.6,6.6,3.7c-0.3,4.1-1.7,8-2.4,12C354.5,68.4,350.6,66.2,346.8,63.8z"/>
<path fill="#036834" stroke="#036834" stroke-width="9.375000e-002" d="M384.5,70c4.9,1.9,9.9,3.8,14.9,5.5
	c-1.9,3.4-3.5,6.9-4.9,10.5c-3.9-1.4-7.9-2.8-11.7-4.4c-0.4-0.3-1.1-0.7-1.5-1C382.7,77.2,383.8,73.6,384.5,70z"/>
<path fill="#EAFFC6" stroke="#EAFFC6" stroke-width="9.375000e-002" d="M1316.7,68.7c-3.1-4.3-6.9-8.6-7.4-14.2
	c2.5,4.3,5.3,8.5,8.1,12.6C1317.1,67.5,1316.8,68.3,1316.7,68.7z"/>
<path fill="#EAFFC6" stroke="#EAFFC6" stroke-width="9.375000e-002" d="M1404.1,134.7c0.3-1.4,0.6-2.8,1.2-4.2
	c1.2,0.6,2.6,1.2,3.8,1.7C1407.4,133.1,1405.7,133.8,1404.1,134.7z"/>
<path fill="#EAFFC6" stroke="#EAFFC6" stroke-width="9.375000e-002" d="M1406.1,146.6c6-3,12.1-5.8,18-9c0.8,0.2,2.5,0.7,3.3,0.9
	l0,0.9C1420.8,142.9,1413.6,145.6,1406.1,146.6z"/>
<path fill="#036737" stroke="#036737" stroke-width="9.375000e-002" d="M724.8,68.9c7.2-3.4,14.6-6.6,21.5-10.6
	c2.2,3.3,4.9,6.2,7.7,9c-8.2,4.7-16.7,8.8-25.4,12.4c-10.6,3.9-21.1,7.9-31.9,11c-30.6,9.4-62.5,14-94.3,17.2c0.1-0.3,0.3-0.7,0.3-1
	c3.3,0.2,5.8-2,8.3-3.8c3.3-2.4,7-4.8,8.7-8.8c25.5-2.9,50.8-8,75.5-14.9c5.3-1,10.2-3.2,15.3-5C715.3,72.6,720.3,71.3,724.8,68.9z"
	/>
<path fill="#066733" stroke="#066733" stroke-width="9.375000e-002" d="M1759.8,60.2c4,1.2,8.1,1.9,12.1,3c-1.8,2.6-3.6,5.1-5.5,7.6
	c-3.7-1.8-7.6-3.1-11.4-4.3C1756.6,64.5,1758.3,62.4,1759.8,60.2z"/>
<path fill="#FCFDD5" stroke="#FCFDD5" stroke-width="9.375000e-002" d="M1771.9,63.2c3.8-0.6,7.6,0.1,11.4-0.6
	c3.1,3.9,3.8,8.9,5.4,13.4c1.3,3.6,2,7.3,1.8,11.2c-7.9-5.6-15.3-12.1-24.2-16.3C1768.3,68.4,1770.1,65.8,1771.9,63.2z"/>
<path fill="#FBFDD2" stroke="#FBFDD2" stroke-width="9.375000e-002" d="M343.6,66.5c1-1,2.1-1.8,3.2-2.7c3.8,2.4,7.7,4.6,11.6,6.8
	c-1.1,5-0.7,10.3-2.1,15.2c-1.6-0.5-3.3-1.3-4.2-2.9c-2.4-3.7-4.8-7.4-7-11.2C344.2,70.2,342.9,68.4,343.6,66.5z"/>
<path fill="#4C3620" stroke="#4C3620" stroke-width="9.375000e-002" d="M706.5,64.5c6.6-2,12.2,3.2,18.3,4.4
	c-4.5,2.4-9.5,3.8-14.3,5.6c-5,1.8-10,4-15.3,5C696.8,73.2,700.9,67.6,706.5,64.5z"/>
<path fill="#046635" stroke="#046635" stroke-width="9.375000e-002" d="M1328.3,79.2c2.3-2.7,4.7-5.5,6.9-8.3
	c1.8,1.9,3.7,3.8,5.6,5.6c-0.6,4.5-1.8,8.9-2.9,13.3c-3.3-2.9-6.3-6.1-9.4-9C1328.4,80.3,1328.3,79.6,1328.3,79.2z"/>
<path fill="#056732" stroke="#056732" stroke-width="9.375000e-002" d="M782.2,78.5c3.9,0,7.8-1.6,11.6-0.6
	c3.4,3.4,6.2,7.5,8.3,11.9c-3.7,0.1-7.4-0.5-11-1.1C788.2,85.3,785,82.1,782.2,78.5z"/>
<path fill="#196025" stroke="#196025" stroke-width="9.375000e-002" d="M412.5,79.6c1.7,0.4,3.3,0.9,5,1.3c-1,1.8-2.4,3.4-4.3,4.3
	C412.9,83.4,412.6,81.5,412.5,79.6z"/>
<path fill="#196025" stroke="#196025" stroke-width="9.375000e-002" d="M582,101.2c0.2-1.3,0.4-2.6,0.6-3.9c2.2-0.1,4.4-0.2,6.6-0.4
	C586.9,98.6,584.5,100.1,582,101.2z"/>
<path fill="#196025" stroke="#196025" stroke-width="9.375000e-002" d="M814.1,109.3c0.5-0.3,1.4-0.8,1.9-1.1
	c2.5,1.9,4.4,4.4,6.1,7.1C819.3,113.3,816.7,111.4,814.1,109.3z"/>
<path fill="#196025" stroke="#196025" stroke-width="9.375000e-002" d="M1488.4,149.5c8.4,2,17.3,2.5,25.6-0.2
	c0.5,0.1,1.6,0.2,2.1,0.2c-6.1,3.6-13.5,3.1-20.3,3.7c-3.4-0.3-6.7-0.8-10-1.3C1486.7,151.1,1487.5,150.3,1488.4,149.5z"/>
<path fill="#196025" stroke="#196025" stroke-width="9.375000e-002" d="M966.3,164.4c0.9,0.6,1.7,1.1,2.6,1.7
	c0.5,0.2,1.4,0.5,1.9,0.6c-1.7,1.1-3.6,1.1-5-0.4C965.9,165.8,966.2,164.8,966.3,164.4z"/>
<path fill="#196025" stroke="#196025" stroke-width="9.375000e-002" d="M1112.6,189.2c0.4-2.4,0.8-4.8,1.4-7.2
	c-0.3,1.3-0.5,2.5-0.7,3.8c1.7,0.1,3.4,0.2,5.2,0.3C1116.7,187.5,1114.7,188.5,1112.6,189.2z"/>
<path fill="#503522" stroke="#503522" stroke-width="9.375000e-002" d="M696.7,90.7c10.8-3.1,21.4-7.1,31.9-11
	c-0.2,3.7-2.8,6.5-4.2,9.7c-1.1,4.3,1.8,8.1,3.3,11.9c6.3,12.3,9.4,25.8,12.6,39.1c2.3,8.7,1.1,17.8,1.5,26.7
	c0.1,6.2,3.9,11.5,5.4,17.3c0.8,3.1,2.1,6.1,3.9,8.8c6-3,10.4-8.6,16.4-11.7c7.3-4.3,16.2-2.5,24-5.2c0-2-0.1-4-0.1-6
	c5.4,0.3,5.2,7.4,10.1,8.5c0.3,1.5,0.6,3,1.1,4.4c1.8,1.8,4.2,3,6,5c5.3,5.6,8,12.9,13,18.8c2.7-1.9,5.8-4.1,9.3-3.4
	c2.7,0.1,2.8,3.4,3.1,5.4c0.5,9.3-7,16.2-9.5,24.6c-0.3,1.1-1,2.8,0.4,3.4c4.7,3.3,10.5,3.4,16,3.8c8.4,0.5,16.5,3.5,25,3.3
	c10.7-0.2,21.4-1.1,32,0c12.8,1.4,24.8,6.4,36.6,11.3c13,5.4,25,12.7,38,17.9c5.6,2.3,11.5,4.7,15.5,9.5c4.4,5.1,3.5,13.5-1,18.2
	c-1.9,2.3-6.2,2-7.3-0.9c-1.3-3.1-2.2-6.4-3.9-9.3c-3.3,0.8-6.5,3.1-10,2c-7.6-2-11.4-9.9-18.3-13.2c-6.4-2-12.5,2-18.5,3.6
	c-3.7,1.2-7.3-0.5-10.7-1.7c-4.4-1.7-9.3-0.5-13.7-2.3c-12.7-5.9-27,0.7-40.2-2.8c-9.6-2.8-18.7,3.2-28.3,3c-3,5.5-4,11.8-5.9,17.6
	c-4.3,14-0.2,28.7,0.1,42.9c0.5,5.7,0,12.1,3.6,16.9c2.7,3.3,7.3,1.2,10-1.1c3.5-2.9,7.2-6.1,11.8-7.1c4.7-1,7.7-5.4,12.4-6.4
	c5.9-1.6,12-2.8,18-3.8c5.2-0.5,11.7-1.9,15.3,3c8.1,9.7,6.6,23.3,10.4,34.7c2.7,3.2,4.4,7,6.2,10.8c1.8,3.3,4.4,7.7,8.8,6.6
	c8.9-0.4,14-8.4,20.5-13.2c4.5-3.5,10.6-3,15.8-1.6c2.9,5.3,3.6,11.4,3.6,17.3c0.2,1.6-1.1,2.6-2,3.7c-5.4,6-11.6,11.5-18.8,15.2
	c-5.6,3-11.8,5.1-16.7,9.3c-3.8,3.1-7.3,7.1-12.4,8.2c-4.6,1.5-10.1,0.8-13.4-2.9c-5.8-6.2-7.1-14.9-10.9-22.2
	c-1.7-3.2-4.5-5.8-5-9.5c-1.3-6.9,0.7-14.5-2.8-20.9c-9.5,4-13.2,14.9-22.1,19.8c-4.3,2.8-9.6,4.9-12,9.7c-1.6,4.7,3.6,7.6,6,10.9
	c5.9,6.2,8,14.7,10.6,22.6c3,8,7.2,15.5,12.5,22.3c3,3.6,2,8.5,1.8,12.8c-0.4,5,2.3,9.9,0.9,14.8c-3.6,14.4,2.6,28.5,6.6,42
	c1.3,4.9,3.4,9.5,5.9,13.9c5.8,0.3,12.9-2.7,17.6,2c-0.6,4.7-6.2,5.2-7.9,9.2c6,5.6,14.3,11.6,13.1,20.9c-4.4,4.1-11.2,3.6-16.7,3.1
	c-6.3-3-10.1-10-17.1-11.9c-7.2-2.1-13.6-6-20-9.9c-5.6-3.5-11.3-7.6-14.3-13.8c-4.3-8.7-5.5-18.6-4.3-28.1c0.6-4-0.1-8.1-0.4-12.1
	c0-10.3,5-20.3,3.4-30.6c-2.7-4.3-6.6-8-10.5-11.2c-11.8-5-18.7-16.2-26.3-25.9c-7-9.3-16.9-15.8-24.8-24.2
	c-3.5-3.4-4.3-8.7-7.9-12.1c-4.4-4.4-7.8-9.6-11.7-14.4c-4-5-8.6-9.3-12.8-14.1c-3.3-3.7-5.1-8.4-7.3-12.8c-1.4-2.9-3.9-5.1-4.9-8.2
	c-2.4-7.2-5.4-14.2-8.6-21.2c-1.8-4.1-5.5-7.4-6-12.1c-0.7-4.4-1.5-8.8-3-13c-1.2-3.5-4.4-5.9-5.3-9.5c-0.7-3.5,0-7.1,0.1-10.7
	c0.3-5.4-1.9-10.5-2.3-15.9c-1.1-15.4,1.2-31-1.8-46.2c-1.8-9.6-5.3-18.8-9-27.9c0.3-1.7,1-3.3,0.8-5c-0.8-4.9-5.7-8.1-6.1-13.1
	c0.6-4.4,3.1-8.4,3-12.9c-0.2-8.4-2.1-16.7-3.2-25c-2.1-13.6-1.6-27.3-2.7-41C698.2,95.5,698.2,92.8,696.7,90.7z"/>
<path fill="#503522" stroke="#503522" stroke-width="9.375000e-002" d="M1593.4,152.8c6.4-0.6,12.8-1.7,19.1-2.7
	c2.6,3.5,4.2,7.6,4.6,11.9c1.4,12.4-1.4,24.8-3.2,37c-3.8,22-0.3,44.4-2.7,66.5c-1,8.3-4.9,16-5.6,24.4c-1.6,15.5,1.3,31.2,5.8,46
	c3.2-0.6,6.4-1.3,9.1-3.3c4.9-3.3,8.3-9.1,14.4-10.5c10.3-1.5,21.4,0,30.3,5.7c8,5.1,13.7,13.7,15.3,23.2c1.4,7.5,0.3,15.2-2.5,22.2
	c-3.8,8.8-7.8,17.9-14.8,24.7c1.6,5.8,7.5,9.9,7.3,16.3c1.1,20.6-8.1,40.4-5.5,61c2,13.5,9.3,25.5,11.6,38.8c1.4,8,2,16.1,2.9,24.2
	c1.3,14.2,3.4,28.5,2.3,42.8c-0.5,9.1-1.6,18.3-5.2,26.7c-2.1,4.8-5.5,9.7-10.8,11c-4.3,1-9.5,1.4-13.2-1.4c-1.9-1.5-3.8-3.7-3-6.3
	c0.6-6.3,6-10.2,9.4-15c3.3-5.1,2-11.5,0.8-17c-2-8,1.4-16,0.6-24c-0.8-13.4-5.9-26.1-11.2-38.3c-7.4-16.7-15.4-34-14.7-52.7
	c-5.8,0.1-8.4,5.9-11.8,9.6c-3.8,4.4-9.9,8-9.9,14.4c0.7,6.7,5.5,11.9,8.8,17.5c6,8.5,8.6,18.8,11,28.9c2.4,10.9,3.3,23-2,33.3
	c-1.6,2.8-3.3,5.9-6,7.7c-13.3,3.9-27.5,3-41,6.2c-6.2,1.5-12.9,4-16.4,9.6c-3.3,5.5-2.6,12.2-1,18.1c-4.5,3.8-9.1,8.7-15.5,8.4
	c-1.3-4.6-0.8-9.5-2.3-14.1c-4.5-2.6-9.3,1.5-14-0.4c3.4-8.1,9.8-14.3,13.3-22.3c2.5-5.3,3.1-11.2,2.2-17c-0.5-2,1.6-3.2,3-4
	c5.6-2.6,11.9,0.4,17.8-1.3c7.8-2,13.4-8.1,19.9-12.3c-10-13.5-16.2-30.4-30.2-40.6c-10.8-8-25-9.7-38.1-8.4
	c-5,10.1-12.8,18.6-17.1,29.1c-2.7,5.9-3.3,12.4-2.4,18.8c-7.1-0.9-13.9,2.1-18.9,7c-5.4,5.3-13.2,8.3-20.8,6.6
	c-1.9-3.9-4-8.3-3.1-12.8c1-5.4,5.2-9.3,8.9-12.9c5.5-5,11.2-10.6,13-18.1c1.3-6.3,0.5-12.8,1.9-19.1c1.2-4.6,3.3-8.8,4.8-13.2
	c1.7-4.7,2.5-9.6,3.8-14.4c1.4-5.5,6.2-9.2,10.9-11.8c10.8-5.5,23.5-6.1,35.3-4.6c7.6-6.9,8.7-17.7,10.8-27.1
	c3.6-22.2,19.6-39.8,24.8-61.5c2-8.8-0.8-17.6-1.5-26.4c-1.6-19.6-2.4-39.3-1.6-58.9c0.2-10.4,2.8-20.6,6.4-30.3
	c5.8-15.6,12.8-31,14.3-47.8c0.4-4.7-0.8-9.4,0.1-14.1c1.5-8,5-15.7,4.8-23.9C1597,158.6,1595.6,155.3,1593.4,152.8z"/>
<path fill="#503522" stroke="#503522" stroke-width="9.375000e-002" d="M1286.9,184.3c3.7-0.3,7.3-1.2,10.9-2.4
	c0.5,4.2,0.4,8.5,1.7,12.5c3.4,1.9,7,0.1,10.5-0.2c1.2-0.1,3-0.1,3,1.6c-3.7,8.3-10.8,14.8-13.8,23.6c-1.9,5.1-2.1,10.6-1,15.9
	c-4.3,5.9-12.1,3.1-18.2,3.6c-9.1,0.9-15.5,8.1-22.8,12.8c8,10.9,13.4,23.5,22.5,33.6c5.2,5.9,11.8,10.5,19.3,12.9
	c8.4,3,17.5,3,26.4,2.5c5.6-11,14.3-20.3,18.3-32.1c1.8-5,2.1-10.5,1-15.7c4.3,0.2,8.9-0.1,12.7-2.4c5.5-3,9.5-8.4,15.5-10.5
	c3.5-1.3,7.5-1.5,11.2-0.9c4,5.1,5.3,12.9,1.3,18.4c-5.2,7.4-13.5,12.1-17.7,20.3c-3.4,6.3-2.5,13.6-3.2,20.5
	c-0.5,5.7-3.3,10.9-5.2,16.2c-1.7,4.6-2.7,9.5-3.8,14.3c-1.2,5.6-5.8,9.5-10.5,12.3c-11,6-24,6.4-36.2,5c-8.4,8-9,20.3-11.6,30.9
	c-2.4,11.9-8.8,22.4-14.1,33.2c-3.8,7.7-7.6,15.6-9.8,24c-2.2,9,0.7,18,1.4,26.9c1.2,15,1.9,30,2,45c-0.2,9.9-0.1,19.9-2.4,29.6
	c-4.1,18-13.6,34.4-17.1,52.6c-1.2,5.5-1.9,11.2-1.3,16.8c1,11.3-6.5,21.7-4.8,33c0.7,5.4,5.1,9.6,10.1,11.3c4.7,1.3,9.4-0.8,14-1.8
	c2.3-0.6,5.1-0.2,6.6,1.8c-1.8,9.2-11.7,14.7-20.7,14.2c-6.8,0.4-12.6-3.8-17.7-7.8c-5.5-4.6-11.2-10.2-12.3-17.7
	c-2.1-12.8,0.8-25.6,2.7-38.2c2.5-14.5,2.1-29.2,1.9-43.8c0.1-11.4-0.4-23.1,3.3-34c6.8-19.5,3.2-40.7-2.5-59.9
	c-2.1,0.4-4.1,0.6-6.1,1.4c-6.7,2.8-10.1,10.5-17.2,12.3c-12.1,1.9-25.6-0.6-34.8-9c-8.8-7.8-13-20.2-11.3-31.8
	c0.9-7.9,4.8-14.9,8.2-22c2.3-4.8,5.6-9.1,9.4-12.8c-1.3-5.6-6.7-9.3-7.2-15c-1.7-21.9,8.9-43.1,5-65.1c-2.7-13-9.7-24.9-11.6-38.1
	c-1.8-12.2-2.7-24.6-4-36.9c-1.6-15.4-1.8-31.2,1.5-46.4c0.3-0.3,0.9-0.9,1.2-1.2c8,0.3,15.8-1.5,23.7-1.2c-2.4,2.9-5.5,5.7-6.1,9.6
	c-1.6,6.8,2,13.3,1.6,20.1c-0.4,6-1.9,11.9-1.1,17.9c1.7,21.5,13.6,40,20.6,59.9c3.5,9.6,5.5,19.7,5.3,30c7.3-0.4,9.7-8.6,14.7-12.6
	c3.4-3.2,7.5-7,6.9-12.2c-1.2-6.5-5.8-11.5-9-17c-6.5-9.5-9-21-11.4-32c-2.5-12.7-1.6-27.6,8.1-37.2c12.3-4,25.6-3.3,38.2-5.7
	c6.9-1.3,14.4-3.3,18.9-9.1c4.2-5.5,3.4-13,1.8-19.4C1283.4,187.1,1285.2,185.7,1286.9,184.3z"/>
<path fill="#503522" stroke="#503522" stroke-width="9.375000e-002" d="M0,1278.2c37.6-0.1,75.2,0.2,112.8-0.2l0,0.2
	c-0.5,0.5-1.4,1.5-1.8,2c0.2,6.1-2.3,11.8-2.2,17.9c-0.1,4.7-1.5,9.3-1.6,14c-0.6,12.7-0.8,25.3-0.4,38c0.5,7.9,2.3,16.4,8,22.2
	c3.8,2.7,9,3.8,13.4,2c2.5-1.8,2.6-5.3,2.7-8.1c0-5.7,0.4-11.4,0.7-17.1c-0.8-22.3-0.2-44.7-0.4-67.1c-0.1-1.4-0.6-2.6-1.5-3.7
	c0.2,0,0.5,0,0.7,0c14-0.1,28.1,0,42.1,0c-1.2,5.6,0.1,11.2,0.2,16.9c0.1,6.3,0.7,12.6,0.5,19c-0.2,4.4,1.6,8.6,1.6,13.1
	c0.1,4.8,0.1,9.6,0.9,14.3c1.2,6.8,1.6,13.9,4.9,20.1c2.6,4.6,8.1,8.3,13.6,6.9c3.8-0.6,5.4-4.7,6.4-7.9c2.5-8.8-0.9-17.6-2.8-26.1
	c-1.6-5.4-2.5-11-3.5-16.5c-1.3-5.9-0.9-12-2.2-17.9c-1.3-5.9-0.5-12-0.7-18c0.2-1.6-0.9-2.7-1.9-3.7c0,0,0-0.1,0-0.2
	c31.7,0.3,63.5,0,95.2,0.1c-1.2,5.5-0.3,11.2-0.6,16.8c-0.5,9.7-0.2,19.4-0.3,29.1c0.1,9-0.3,18.1,0.7,27.1
	c0.8,8.2-0.4,16.7,1.8,24.8c5.5,6.9,18.9,1.9,19-6.8c0.5-8,0.3-16-0.6-23.9c-2.8-14.9-0.9-30.1-2.7-45.1c-0.2-7-0.5-14.1,0-21.1
	c2.3-0.3,4.7-0.4,7.1-0.2c0.5,5.8,0.5,11.6,0.4,17.4c-0.4,7,1.1,13.9,1,20.9c0.7,10.3,0.1,20.7,1.6,31c0.9,5.7,0.6,11.6,1.9,17.2
	c1.6,3.6,3.9,7.6,7.7,9.2c2.9,0.3,6.6,1.1,8.8-1.3c1.1-1.2,2.3-2.6,2.5-4.3c1.4-11.3,1.6-22.9-1.2-34.1c-1.6-9.5-4.1-18.8-5.3-28.4
	c-1.9-8.8-1.3-17.8-1.7-26.6c-0.5-0.4-1.5-1.1-1.9-1.5v-0.2c52.4,0.1,104.8,0.1,157.2,0c1.4,7.4,3.7,14.6,5.1,22
	c0.9,5,4.9,8.8,5.8,13.9c0.9,4,0.4,8.1,0.5,12.1c-0.1,2.6,2.7,3.8,4.5,5.1c3.9,2.5,8.7,2.8,13.2,2.5c6.8-0.4,13.8,0.9,20.5-0.4
	c4.7-1,8.2-6.4,6.1-11c-1.9-5.9-8.3-8.1-13.6-9.9c-2.6,1.5-5.6,2.3-8.5,1.1c-3.1-11.5-7.9-23.3-5.6-35.4c19.3-0.1,38.5,0,57.8-0.1
	c5.8,8.8,12.4,17.1,18.6,25.6c7,9.3,17.2,15.6,23.9,25.1c1.6,2.2,1.1,5.2,2.6,7.4c6.8,3.8,15.5,4.7,22.8,1.7
	c2.8-0.9,5.7-1.1,8.5-1.7c2.6-1.2,4.9-3.2,8-3c3.3-2.3,6.4-6.6,4.5-10.7c-2.4-6.2-9.2-9.4-15.5-9.2c-3.3-0.1-7.2,1.2-10-1.3
	c-5.8-4.6-10.2-10.5-15.1-15.9c-4.8-5.2-8-11.6-11.3-17.8c43.9-0.2,87.8,0.1,131.7-0.1c2.1,4.5,4.2,9,6,13.6c1.5,3.1-1.9,5.7-3.6,8
	c-3.5,0.1-7-0.9-10.4-0.2c-3.6,1.3-5.9,4.7-9.3,6.3c-2.1,0-4.1-0.4-6.2-0.4c-3.2,2.3-4.4,6.5-7.8,8.6c-3,1.9-3.1,5.8-3.1,9
	c0.1,5.6,5.5,10.3,11.1,9.9c2.9,0.2,5.3-1.9,8-2.5c3.6-0.3,7.6,0.6,10.8-1.4c3.3-1.7,4.6-5.7,8-7.2c3.7-0.6,7.3,1.3,11,0.9
	c3.6-1.1,7.1-2.5,10.1-4.7c1.2-1.1,2.9-0.6,4.4-0.9c9.1-2.8,16.4-10.8,18.4-20.1c0.4-6.3-0.1-12.6-0.7-18.8c14,0.1,28,0.1,42.1,0
	c2.4,6.4,4.6,12.9,6.5,19.5c2.9,8.2,2.9,17.1,6.7,25c3.9,7.2,6.8,15,12,21.4c3,3.9,7.4,6.8,12.5,7c9.3,0.6,18.7-0.2,28,0.6
	c3.2,0,7.3,0.8,9.4-2.2c2.6-3,2-7.2,0.8-10.6c-1.1-4.4-4.5-8.3-9.2-8.9c-6.2-1.8-11.9,2.3-18,2.2c-2.2-1.5-3-4.3-4.5-6.5
	c-2.4-5.2-5.4-10.2-7-15.6c-0.5-10.6-0.3-21.3,0.7-31.9c155.2,0.1,310.4,0,465.6,0.1c-4.7,19.3-8.7,38.9-9.3,58.8
	c0,6.9-0.8,13.8-3.1,20.3c-3,8.5-8.6,15.7-15.2,21.7c-3.4,3.4-7.7,6.3-8.7,11.3c-0.6,2.6-1.5,6.3,1.2,8c4.6,2.7,10.2,1.8,15.3,2.5
	c17.9,2.3,36.1,4.3,54.1,2.3c6.2-1.1,13.5-2.2,17.6-7.5c3.4-4.5,1-10.5-1.7-14.7c-3.5-5.8-10.3-9.8-11-17
	c-0.8-9.4,0.1-19.1,4.1-27.7c4.6-10.2,4.6-21.7,7.9-32.2c2.6-9,6.6-17.5,11-25.8c28.3-0.1,56.5,0,84.7,0c1,6.5,1.7,13.1,2.1,19.8
	c0.5,9.3,4.6,17.9,6.1,27c0.7,3.7,0.3,7.6,1,11.3c1.4,5.9,5.6,10.6,7.6,16.3c2,5,0.6,10.6-1.5,15.4c-3.6,7.5-11.5,11.2-16.7,17.3
	c-4.5,4.8-6.4,11.9-4.8,18.3c3.7,0.2,7.7,0.1,11.1,1.8c5.7,2.8,12.2,2.3,18.4,2.3c12.7,0,25.4,0,38.1,0c7,0,13.6-3.2,19-7.5
	c3-2.6,6.1-5.9,5.8-10.2c0-7.9-5.4-14.2-9.3-20.6c-1.4-3-5.3-2.7-7.4-4.7c-2-5-2.1-10.5-3.2-15.6c-2.3-10.5-1.6-21.4-1.9-32.1
	c-0.5-12.9-1.4-25.9-2-38.8c66.5,0,133,0,199.5,0c0.8,11.2,2.1,22.4,3.7,33.6c0.7,8.3,1.4,16.9-0.5,25.1c-1.3,6-4.9,10.9-7.8,16.2
	c-2.5,4.3-4.9,8.9-9.3,11.6c-2.8,1.8-6.4,1.9-9.2,3.8c-2.4,3.2-3.2,7.7-2.2,11.6c0.7,2.5,3.3,3.5,5.7,3.6
	c10.3,0.7,20.6-0.8,30.8-2.2c-0.1,3.4-0.2,6.9,0.6,10.2c6.9,1.5,13.9-0.6,20.7-1.5c8.1-1.4,16.4-0.9,24.5,0.2
	c8.3,0.7,17.2,2.1,25.1-1.4c5.6-2.5,8.3-9.1,7.3-14.9c-0.7-5-3.7-9.4-6.4-13.5c-5.9-8.6-8.2-19.1-9.2-29.3
	c-1.1-17.7,0.9-35.5,4.1-52.9c35.5,0,71-0.1,106.4,0v0.2c-1.2,3.4-1.1,7.1-1,10.6c0.1,73-0.1,146,0.1,218.9H0V1278.2z"/>
<path fill="#FCFCD5" stroke="#FCFCD5" stroke-width="9.375000e-002" d="M1327.2,80c0.3,0.2,0.9,0.5,1.2,0.7c3.2,3,6.1,6.2,9.4,9
	c-0.4,4.1-0.3,8.2-1.2,12.1c-1-0.1-2.1-0.2-3.1-0.3c-3.9-5.7-8-11.3-10.5-17.7C1324.4,82.6,1325.8,81.3,1327.2,80z"/>
<path fill="#FEFCD5" stroke="#FEFCD5" stroke-width="9.375000e-002" d="M380.9,81.6c0.5,0,1.4,0,1.8,0c3.8,1.6,7.8,3,11.7,4.4
	c-3,8-4.6,16.5-4.7,25c0.3,4.6,1.2,9.3,0.7,13.9c-10.2-4.1-16.7-13.8-22.2-22.9C373,95.6,377.5,88.9,380.9,81.6z"/>
<path fill="#FEFCD5" stroke="#FEFCD5" stroke-width="9.375000e-002" d="M926.2,125.8c4.4-2.4,9.1-3.9,13.8-5.4
	c2-0.3,3.5,1.3,5.1,2.3c4.7,3.2,9,7.5,14.7,8.8c3.4,0.8,6.8,2,10.3,2.3c0.3,7.3,2.3,15.9,9.2,19.7c6,3.1,12,6.9,15.2,13.1
	c-7.9-0.6-15.9,0.1-23.8,0.2c-0.5-0.1-1.4-0.5-1.9-0.6c-0.9-0.6-1.7-1.1-2.6-1.7l-0.3-0.2c-3.2-11.8-11.4-21.7-21.1-28.8
	C939.1,131.4,932.3,129.3,926.2,125.8z"/>
<path fill="#046733" stroke="#046733" stroke-width="9.375000e-002" d="M430.1,96.3c0.5-3.9,0.9-7.8,1.2-11.7c6,1.5,12,2.7,18,4
	c-1.2,3.5-1.8,7.2-2.6,10.8c-0.4,0.1-1.2,0.2-1.6,0.2C440.1,98.4,435.1,97.4,430.1,96.3z"/>
<path fill="#046733" stroke="#046733" stroke-width="9.375000e-002" d="M1357.6,105.3c1.9-3.4,3.5-7,5-10.6c4,2.7,8,5.3,12.1,7.8
	c-1.3,3.8-2.5,7.6-3.4,11.5C1366.6,111.2,1362,108.3,1357.6,105.3z"/>
<path fill="#046733" stroke="#046733" stroke-width="9.375000e-002" d="M1449.8,142.7c4.6-2.6,9.8-4.7,15-5.5
	c4.4,1.8,7.8,5.4,11.8,8c3.5,2.4,7.7,3.3,11.7,4.2c-0.9,0.8-1.7,1.6-2.6,2.4c-8.9-1.4-17.9-2.6-26.6-4.9
	C1456,145.7,1452.9,144.2,1449.8,142.7z"/>
<path fill="#E8FCB1" stroke="#E8FCB1" stroke-width="9.375000e-002" d="M1456.3,84.5c4,3.9,1.5,10,2.4,14.9c1.8-0.7,3.6-1.4,5.4-2.1
	l0.4,0.5c-2.7,2.2-5.5,4.3-8.3,6.4C1457.1,97.7,1457.1,91,1456.3,84.5z"/>
<path fill="#046734" stroke="#046734" stroke-width="9.375000e-002" d="M474.6,93.1c0.9,0,2.6,0.1,3.5,0.2c2.3,0.3,4.6,0.5,6.9,0.7
	c0.5,3.8,1.2,7.5,1.9,11.2c-0.2,0.2-0.5,0.5-0.6,0.7c-5.1-0.5-10.2-1.4-15.3-1.9C472.3,100.4,473.5,96.8,474.6,93.1z"/>
<path fill="#046734" stroke="#046734" stroke-width="9.375000e-002" d="M1456.1,104.2c2.8-2.1,5.6-4.2,8.3-6.4
	c0.2,0.3,0.6,0.9,0.8,1.2c-0.8,4.4,0.7,9.1-0.7,13.4c-4.5,3.2-8.9,6.3-13.5,9.3C1452.5,115.8,1455.1,110.2,1456.1,104.2z"/>
<path fill="#3F7D1F" stroke="#3F7D1F" stroke-width="9.375000e-002" d="M501.1,95.8c0.7,0,2.2,0.1,2.9,0.2c-0.5,1.1-2.1,3.2-3.4,2
	C500.7,97.4,501,96.3,501.1,95.8z"/>
<path fill="#FDFCD5" stroke="#FDFCD5" stroke-width="9.375000e-002" d="M430.1,96.3c5,1.1,10,2.1,15,3.3c0.4,0.1,1.1,0.5,1.5,0.6
	c-0.5,6-0.2,11.9,0.6,17.9c0.2,2.1,0.4,5.2-2.1,5.9c-9.3,4-19.2,7-29.3,7.7c1.3-4.6,5.5-7.4,7.1-11.9
	C426,112.2,428.8,104.4,430.1,96.3z"/>
<path fill="#FDFCD5" stroke="#FDFCD5" stroke-width="9.375000e-002" d="M1348.3,118.9c3.1-4.5,6.5-8.9,9.3-13.6
	c4.5,3.1,9.1,6,13.7,8.7c-0.8,4.3-1.3,8.7-1.4,13.1c0.1,4.7,1.3,9.5,0.5,14.2c-1.6-0.5-3.3-0.9-4.6-2
	C1358.5,133.9,1352.9,126.6,1348.3,118.9z"/>
<path fill="#046735" stroke="#046735" stroke-width="9.375000e-002" d="M506.9,104.8c3-3.2,6.5-5.7,10.2-7.8
	c11.8,0.7,23.6,1.1,35.4,1.1c1.7,4.1,4.1,8,6.8,11.5c-4.8,0-9.6,0-14.4,0c-6.8-2.4-13.7-4.8-21-5.1c-2.6-0.3-2.1,2.7-2.6,4.3
	C516.7,107.3,511.8,106,506.9,104.8z"/>
<path fill="#046735" stroke="#046735" stroke-width="9.375000e-002" d="M1083.5,195.5c0.5-3.6,0.9-7.3,1.1-11c0.5,0,1.4,0,1.9,0
	c3.5,0.3,6.9,0.7,10.4,1.1c0.3,1.2,0.6,2.4,0.9,3.7c0.6,2.6,1.8,5.1,2.8,7.6c-4.2-0.2-8.4-0.4-12.5-0.7
	C1086.6,196,1085,195.7,1083.5,195.5z"/>
<path fill="#FBFDD5" stroke="#FBFDD5" stroke-width="9.375000e-002" d="M465.4,117c1.8-4.4,3.8-8.6,5.6-13
	c5.1,0.5,10.2,1.4,15.3,1.9C480.5,111.5,472.9,114.5,465.4,117z"/>
<path fill="#FBFDD5" stroke="#FBFDD5" stroke-width="9.375000e-002" d="M1037,191.8c2.4,0.1,4.8,0.2,7.3,0.2
	c3.3,0.4,6.5,0.7,9.8,1.2c0.2,6.1,2.8,11.7,3.8,17.7c-8.4-3.1-16-8.4-22.5-14.6C1035.9,194.8,1036.5,193.3,1037,191.8z"/>
<path fill="#0B6430" stroke="#0B6430" stroke-width="9.375000e-002" d="M826.8,104.5c6.5,4.7,13.1,9.2,20,13.2
	c0.5,2.5,0.4,5-0.1,7.4c-5.4-2.5-9.9-6.6-13.8-11.1C830.5,111.1,828,108.2,826.8,104.5z"/>
<path fill="#FAFDD4" stroke="#FAFDD4" stroke-width="9.375000e-002" d="M545,109.6c4.8,0,9.6,0,14.4,0c2.2,2.1,5.1,3.6,6.9,6.1
	c2.1,4.3-0.5,9-1.3,13.3c-1.8-1.9-3-4.3-4.5-6.5C556.4,117.1,550.8,113,545,109.6z"/>
<path fill="#FBFCD3" stroke="#FBFCD3" stroke-width="9.375000e-002" d="M1451.1,121.8c4.6-3,9-6.2,13.5-9.3h0.8
	c0.5,2.9,1.1,5.7,1.4,8.6c0.4,1.4-0.8,2.2-1.7,2.9c-4.8,3.8-10.5,6.4-16.1,8.7c-0.7-0.3-2-1-2.6-1.3
	C1447.9,128.2,1449,124.7,1451.1,121.8z"/>
<path fill="#FCFCD4" stroke="#FCFCD4" stroke-width="9.375000e-002" d="M891.4,138.3c4.6-2.2,9.6-4.3,14.8-4.8
	c3.5,2.8,5.2,7.1,7.8,10.6c1.9,2.5,3.9,4.8,5.9,7.3c-2.7-0.9-5.4-1.8-8.1-2.8c-3.7-1.6-7.1-3.9-10.7-5.6c-3.1-1.5-6.5-1.9-9.6-3.4
	C891.4,139.3,891.4,138.7,891.4,138.3z"/>
<path fill="#4D3720" stroke="#4D3720" stroke-width="9.375000e-002" d="M1569.4,141.8c4.8-6.2,13.2-8.3,20.6-7.3
	c4.2,0.4,7.8,2.9,11.2,5.2c-6.2-0.2-12.2,1.5-18.3,1.7C1578.4,141.5,1573.9,142.7,1569.4,141.8z"/>
<path fill="#244D2C" stroke="#244D2C" stroke-width="9.375000e-002" d="M1601.3,139.7c2.5,0.1,4.9-0.2,7.4-0.6
	c-2.3,2-5.6,1.5-8.4,2.2c-7,1.4-14.2,1.7-21.2,2.6c-3.7,0.5-7.5,0.5-11.2-0.1c0.4-0.5,1.2-1.5,1.6-2c4.5,1,9-0.3,13.5-0.4
	C1589.1,141.3,1595.1,139.5,1601.3,139.7z"/>
<path fill="#08652E" stroke="#08652E" stroke-width="9.375000e-002" d="M911.7,148.6c2.7,1,5.4,1.9,8.1,2.8
	c3.7,3.3,7.2,6.8,11.2,9.7c9,6.6,19.7,10.6,30.7,12.3c0.4,1.1,0.9,2.3,1.4,3.4c-12.2-3.3-24.4-6.5-36.3-10.7
	c-0.1,1.4-0.2,2.9-0.4,4.3c-0.3,0.1-0.8,0.4-1.1,0.5c0.3-0.3,0.7-0.8,1-1C926.5,160.4,918,154.4,911.7,148.6z"/>
<path fill="#08662B" stroke="#08662B" stroke-width="9.375000e-002" d="M1011,175.2c3.9,0.6,7.7,1.3,11.6,1.8
	c0.6,3.6,1.2,7.1,1.4,10.7C1018.6,184.8,1015,179.6,1011,175.2z"/>
<path fill="#95C47E" stroke="#95C47E" stroke-width="9.375000e-002" d="M1095.9,184.7c-0.1-2-0.2-4-0.2-6c1.6,3.3,2.1,6.9,2.2,10.5
	c-0.3-1.2-0.6-2.4-0.9-3.7c-3.5-0.4-6.9-0.7-10.4-1.1l0.6,0C1090,184.5,1093,184.6,1095.9,184.7z"/>
<path fill="#463921" stroke="#463921" stroke-width="9.375000e-002" d="M1173.4,185.7c2.7-3.8,6.7-7,11.6-7.1c5.2-1,10.8,1,13.5,5.8
	C1190.2,185.6,1181.8,185.6,1173.4,185.7z"/>
<path fill="#036733" stroke="#036733" stroke-width="9.375000e-002" d="M1045.2,180.4c3.1,0.4,6.3,0.8,9.4,1.1
	c-0.3,3.9-0.3,7.8-0.5,11.6c-3.3-0.5-6.5-0.8-9.8-1.2l-0.7-0.7c-2.1-0.3-4.3-0.3-6.4-0.3c2-3.2,3.1-6.9,3.9-10.6
	C1042.5,180.4,1043.8,180.4,1045.2,180.4z"/>
<path fill="#608A38" stroke="#608A38" stroke-width="9.375000e-002" d="M1005.7,185.9c1.4-2.3,4.3-0.9,5.4,0.9
	C1009.2,186.9,1007.4,186.6,1005.7,185.9z"/>
<path fill="#FBFDD4" stroke="#FBFDD4" stroke-width="9.375000e-002" d="M1083.2,196.3c1.6,0,3.2-0.1,4.9-0.1
	c4.2,0.3,8.4,0.5,12.5,0.7c0,0.7-0.1,2-0.2,2.7c-2.9,2.5-6.3,4.3-9.3,6.5c-4.1,2.6-8.3,5.5-13.3,5.9
	C1079.7,206.8,1082.2,201.8,1083.2,196.3z"/>
<path fill="#FDEE21" stroke="#FDEE21" stroke-width="9.375000e-002" d="M496.3,491.2c1.9,0.3,4.1,0.3,5.4,2.1
	c3.4,4,4.3,9.5,7.8,13.4c0.9-0.1,1.8-0.2,2.7-0.3c1.7-4.2,1-8.9,2.1-13.2c0.9-3.4,5.1-3.7,7.7-2.5c1.8,2,2.2,4.8,2.9,7.3
	c1.1,5.7,2,11.4,4,16.9c2.4,4.8,7.2,7.6,10.5,11.7c0.1,4.1,0.8,8.2,1.7,12.2c2.2,13.3,8.9,25.2,14.9,37.1
	c5.4,10.1,11,20.2,14.9,31.1c1.7,5.2,2.2,10.7,1.4,16.1c-1.1,3.9-5.1,7.5-9.4,6.1c-6.8-2.3-12.4-7.1-18.4-10.9
	c-8.7-5.2-19.2-5.4-28.2-9.7c-6.4-2.5-12.1-7.9-19.4-6.1c-6.5,6.5-9,15.6-12.3,23.9c-19.6,51.1-47.3,98.6-76.3,144.9
	c-9.1,14.4-17.8,29.1-27.1,43.3c-9.1,14.1-18.1,28.8-22.3,45.2c-2,7.2-1.8,14.7-1.4,22.1c1.4,10.7,6.4,20.5,8.7,31
	c0.7,7,0.9,14.1-0.1,21.1c-2,5.8-4.5,11.4-7.5,16.8c-8,15-13.3,31.3-16.2,48c-3.1,19.1-6.7,38.1-9,57.3c-0.4-0.2-1.2-0.7-1.6-1
	c-0.4,8.9-2.6,17.6-3.3,26.5c-2,9.9-0.9,20.1-2.9,30c-0.9,14.1,0,28.3-1.1,42.4c-0.3,12.8,0.1,25.5-1,38.3
	c-0.2,15.9-0.2,31.9-1.9,47.8c-0.5,19-0.7,38-0.1,56.9c1.1,9.8,3,19.6,5,29.3c1,4.9,2.7,9.7,2.8,14.7c0.4,8.9,2.4,17.9,0.3,26.7
	c-0.6,3.4-4.7,4.1-7.5,3.3c-2.3-1.9-3.4-4.8-4.5-7.5c-2-7-2.4-14.4-2.5-21.6c-0.8-15.7-1.6-31.4-1.9-47.1c-0.3-4.6,0.2-9.5-1.9-13.8
	c-0.2-1.1-0.4-2.1-0.5-3.1c-0.5-9,0.1-18.1-1-27.1c-0.3-3-0.2-6-0.3-9c-1.3-12.1-1.7-24.3-4.4-36.3c-2.7,3.5-3.7,7.9-3.8,12.2
	c-1.7,10.3-0.3,20.7-1.6,31c-0.1,9.7-0.2,19.5,0,29.2c0.1,2.3,0.1,4.7,0.1,7c-2.2,5.7-0.8,11.9-1,17.8c0.8,11.7-0.1,23.4,1.4,35
	c0.9,7,1,14,2,21c0.6,4-0.4,8.1-1.2,12c-1.5,3.9-6.4,4.9-10.1,4.3c-1.7-1.2-1.7-3.5-2.1-5.3c-3.9-30.7-0.3-61.6-2-92.4
	c-0.4-10.5,0-21-0.1-31.6c-0.2-15.3,1.1-30.7,0.9-46c0.8-14,0.8-28,0.9-42.1c-0.2-8.7,1.1-17.3,1-25.9c1.3-8.9,0.7-18,0.9-27
	c-0.2-11.1,1.4-22.1,1.1-33.1c-0.3-7.7,0.9-15.3,0.2-22.9c-0.4-7.4-0.9-14.9-1.8-22.2c-1.6-5.5-2.4-12.8-8.4-15.3
	c-10-2.6-20,1.5-29.7,3.6c-6.9,1.8-15.2,1.8-19.8,8.1c-5.2,8.2-8.2,17.5-10.5,26.9c-6.1,17.1-10.9,34.6-16,52
	c-0.9,6.7-3,13.2-4.3,19.8c-2.4,9.8-3.4,19.9-5.6,29.8c-0.5,6.2-2.3,12.1-2.5,18.3c-0.5,5-2,9.8-1.8,14.9c0.2,6.1-2.2,11.9-1.9,18
	c0,5.7-1.1,11.3-1,17c-1.7,11.9-0.7,24-1.1,36.1c0,8.7,0.2,17.3,0,26c0,4.8-0.2,9.8,2.1,14.2l0,0.1c-2.7,8.7,0.6,17.7,1.6,26.4
	c1.1,9.3,5.8,17.8,6,27.3c0.5,4.9,0,9.9-2.1,14.4c-2.3,0.2-4.6,0.6-6.9,0.1c-4-2.5-6.5-7-7.1-11.6c-0.7-5.3-2.6-10.5-2.2-15.9
	c0.4-5.8-1.6-11.3-1.9-17c0.1-14.7-1.7-29.3-2.2-44c-0.3-5.7-0.1-11.5-0.6-17.2c-1.3,4-1.2,8.3-1.2,12.5c-1.1-6.7-0.5-13.5-0.9-20.2
	c-1.7-22.2-3.6-44.6-9.6-66.1c-1.9-6.5-4.7-13-4.4-19.9c-0.4-22,12.7-41.3,14.1-63.1c0.3-4.7,0.3-9.6-0.9-14.2
	c-6.6,5.1-8.1,14.2-9.7,21.9c-0.4,0-1.1-0.1-1.5-0.1c-0.6,3.2-2.1,6.1-3.2,9.1c0.5,5.1-2.3,9.7-3.5,14.5
	c-5.7,21.2-11.6,42.4-15.8,63.9c-0.9,6-2.2,12-3.5,18c-1,4-0.6,8.2-1.6,12.2c-1.6,5.8-1,11.8-2.2,17.7c-1.5,7.6-0.7,15.3-1.4,23
	c-0.8,9-0.5,18.1-0.6,27.1c0.1,15,0,30,0.1,45c0.1,7.3-1.3,14.6-1,21.9c-0.2,2.8,0.5,6-0.9,8.6c-3.2,1.3-7.8,2-10.2-1.1
	c-3-3.9-5.7-8.5-5.9-13.5c-1.8-12.6-1.9-25.4-0.2-38c0.2-4.7,0.2-9.3,1.1-13.9c1.1-6,0.8-12.2,2.2-18.1c1.4-5.3,0.5-10.8,1.7-16.2
	c1.5-5.9,0.9-12,2-18c1.2-6.8,1.7-13.7,1-20.6c0.1-2.8,0.2-5.5,0.7-8.2c1-5.6,0.4-11.4,0.7-17c1.9-20-1-40.4,2.1-60.3
	c1.7-8.8,5.8-17.1,6.4-26.2c1.1-7.5,1.7-15,2.3-22.5c-0.1-6.4,1.4-12.7,1.1-19c-0.2-8.1,1-16,0.8-24.1c0.1-13.3,0-26.6,0.3-39.9
	c1.4-8.9,0.4-18,1.2-27c2.1-28.3,4-57.2,13.6-84.2c3.6-10.4,8.8-20.1,15.5-28.8c6.4-7.1,13.4-13.8,21.8-18.4
	c14.2-9.2,32.5-8.5,46.2-18.7c12.8-9.3,21.3-23.2,29.8-36.3c10.1-15.3,16.9-32.5,27.3-47.6c2.5-3.7,5.6-7.2,9.5-9.4
	c9.6-6.3,20.9-9.4,30.9-15.1c14.8-8,27.7-18.8,39.6-30.6c25.4-27,47.6-56.8,68.9-87.1c12-17.7,24.6-35.1,35.3-53.6
	c7.2-12.2,10.8-26.3,11.4-40.4c-0.3-1.6,1.2-2.6,2.5-3.1c4.5-1.5,9.2,2.1,13.5-0.4c0-1.9,0.1-3.9-0.1-5.8c-0.5-4-3.2-7.5-3.1-11.6
	C496.3,494.4,496.3,492.8,496.3,491.2z"/>
<path fill="#808080" stroke="#808080" stroke-width="9.375000e-002" d="M1125.2,720.2c7.4-4,15.5-8.2,24.2-7.6
	c7,0.6,9.4,9.3,7.3,15.1c-4,9.7-16.1,13.3-19.3,23.5c-2,6.2-5.7,12.1-5.6,18.9c-0.3,20.8,1.2,42-4.4,62.2
	c-2.1,8.5-6.1,16.3-8.5,24.6c-2,6.9-2.8,15.2,1.9,21.3c4.4,5.3,9.5,10.5,15.9,13.3c8.4,3.8,18.2,2.2,26.4-1.4
	c12.6-6,21.6-17.1,31.2-26.8c7.1-6.9,14.3-13.7,21.3-20.7c4.4-4.6,9.8-8.2,13.7-13.3c2.8-3.5,3.6-8.2,5.9-12
	c5.8-9.9,15-17.1,23.9-24.1c9.9-7.5,22.8-9.1,34.9-8.2c11.4,0.9,22.7,3,33.9,5.3c10.1,2,19.6,7,30,6.6c40.8-1,81.6-6.7,122.3-2.2
	c5.5,0.8,11.2,1.9,15.8,5.2c3.9,2.8,4.7,8,7.4,11.7c3.8,3,8.8,3.7,13.4,4.6c9.3,1.3,18.5,2.8,27.7,4.4c19.8,3.8,40,6.1,60.2,4.9
	c11.7-0.9,22.5-5.9,33.5-9.8c25.7-9.3,54.5-9.7,80.4-1.2c16,5,30.8,13.2,45.1,21.7c16.6,10.2,32.3,22.2,45.3,36.8
	c9.8,10.9,17.5,23.3,25.1,35.8c10.7,18.2,19.6,37.5,26.4,57.4c3,9.1,6.1,18.3,7.2,27.9c3.2,24.3-0.6,48.7-0.1,73
	c0.3,17.3,3.6,34.4,8.3,51c5.7,19.8,13.8,38.9,23.9,56.9c2,3.7,5.1,7.3,4.3,11.9c-16.9-10.5-26.5-29-33-47.1
	c-4.1-9.7-4.5-20.5-9.1-30c-1-1.5-1.8-4.1-4-3.6c-3.3,5.4-3,11.9-4,17.9c-3.6,23.6-8.7,47-15.1,70.1c-3.8,12.8-9,25-13.6,37.5
	c-5.7,15-8.9,30.8-12,46.6c-3.2,17.4-5.2,35.2-4.1,52.9c1,10.2,3.3,20.7,9.2,29.3c2.7,4.2,5.6,8.5,6.4,13.5
	c0.9,5.8-1.8,12.4-7.3,14.9c-7.9,3.5-16.8,2.2-25.1,1.4c-8.1-1.1-16.4-1.6-24.5-0.2c-6.9,0.9-13.8,2.9-20.7,1.5
	c-0.8-3.4-0.7-6.8-0.6-10.2c-10.2,1.4-20.5,2.9-30.8,2.2c-2.4-0.1-5-1.1-5.7-3.6c-1-3.9-0.2-8.3,2.2-11.6c2.8-1.8,6.4-2,9.2-3.8
	c4.4-2.6,6.8-7.3,9.3-11.6c2.9-5.3,6.5-10.3,7.8-16.2c1.8-8.2,1.1-16.8,0.5-25.1c-1.6-11.2-2.8-22.4-3.7-33.6
	c-1.3-13-2.8-26.2-7.2-38.6c-4.9-12.7-15-22.1-24.3-31.6c-4.2-4.1-7.6-9.3-13.2-11.6c-9.1-3.8-19.2-3.5-28.8-3.5
	c-23.5,0.7-47.4-1.7-69.7-9.5c-14.6-5-28.1-12.4-40.9-21c-3.6,12.2-11,22.9-13.8,35.4c-2.4,10.6-3,21.4-3.2,32.2
	c0,16.1,0.7,32.1,1.5,48.2c0.7,12.9,1.6,25.9,2,38.8c0.3,10.7-0.4,21.5,1.9,32.1c1.2,5.2,1.2,10.7,3.2,15.6c2.1,2,6,1.7,7.4,4.7
	c4,6.3,9.3,12.7,9.3,20.6c0.3,4.2-2.8,7.6-5.8,10.2c-5.4,4.3-12,7.5-19,7.5c-12.7,0.1-25.4,0-38.1,0c-6.2,0-12.7,0.5-18.4-2.3
	c-3.4-1.8-7.4-1.7-11.1-1.8c-1.6-6.4,0.3-13.5,4.8-18.3c5.2-6.1,13.1-9.9,16.7-17.3c2-4.8,3.4-10.3,1.5-15.4
	c-2-5.7-6.1-10.4-7.6-16.3c-0.7-3.7-0.3-7.6-1-11.3c-1.5-9.1-5.6-17.7-6.1-27c-0.3-6.6-1-13.2-2.1-19.8
	c-4.5-31.6-13.5-62.5-15.9-94.3c0-3.7-4.3-3.2-6.8-3.2c-5.8,7.2-7.8,16.5-13.5,23.8c-9.4,12.7-19.5,24.8-28.1,38.1
	c-7.8,11.3-14.1,23.5-20.4,35.7c-4.3,8.3-8.3,16.8-11,25.8c-3.2,10.6-3.2,22-7.9,32.2c-4,8.6-5,18.3-4.1,27.7
	c0.7,7.2,7.6,11.2,11,17c2.7,4.2,5,10.2,1.7,14.7c-4.1,5.4-11.4,6.4-17.6,7.5c-18,2-36.2,0-54.1-2.3c-5.1-0.7-10.7,0.2-15.3-2.5
	c-2.7-1.7-1.8-5.4-1.2-8c0.9-5,5.3-8,8.7-11.3c6.6-6,12.2-13.3,15.2-21.7c2.4-6.5,3.1-13.5,3.1-20.3c0.6-19.9,4.6-39.5,9.3-58.8
	c4-16.5,8.4-32.8,11.9-49.4c5.5-25.6,10.5-51.3,16.1-76.8c4.2-20.3,10.1-40.3,12.4-60.9c1.3-10.6,1.1-21.3,1.2-31.9
	c-0.1-12.7-0.3-25.4-0.7-38.1c-14.6,6.8-29,15.1-45.2,17.4c-8.9,1.1-18.1,1.9-27,0.1c-4-0.9-8.8-2.9-9.5-7.5
	c-2-10.4-1.9-21.1-1.2-31.7c0.1-1.7-0.1-3.5-1.3-4.8c-2.8-0.8-5.7-0.6-8.5-0.8c-9.1-0.5-18.2-3.4-25.4-9.1c-2.9-2.2-5.1-5-7.9-7.2
	c-1.7-1.6-4.5-1.6-6.1,0.1c-4.5,4.5-5.4,11.6-10.1,15.9c-6.5,3.5-13.3,6.5-20.5,8.4c-4.5,1.4-9.3-1.3-13.7,0.2
	c-4.2,2.8-7.2,6.9-10.5,10.6c-11.9,14.6-21.1,31.3-34.1,44.9c-2.5,2.8-5.9-0.1-8.4-1.3c5.2-7.5,10.6-14.9,15.4-22.6
	c5.6-8.8,10-18.3,16.4-26.6c3.3-4.3,7.5-8.3,8-14c-12.9,4.8-25.7,11.4-39.8,11.2c-5.1-0.3-10.8-1.1-14.4-5.1
	c11.5-3.2,24-3.8,34.4-10.2c3.1-2.3,7.1-4.5,8-8.7c-8.9-2.8-19-1.7-26.8-7.4c-7.4-5.5-16.1-8.7-24.4-12.4c-6.4-2.8-11.4-7.9-16-13
	c-10.8-12.7-20.9-26.2-27.3-41.8c-6-14.5-7.8-31.2-3.3-46.4c3.3-11.2,9.2-21.3,14.5-31.6c2.6-5.3,6.1-10.2,8.4-15.6
	c1.8-4.1,1.4-8.7,2.1-13c1-6.4,4.3-12.2,5.3-18.5c0.8-4.7,0.7-9.5,2.1-14c3.3-10.3,7.5-20.4,13-29.8
	C1116.9,730.8,1118.8,723.5,1125.2,720.2z"/>
<path fill="#FBB03B" stroke="#FBB03B" stroke-width="9.375000e-002" d="M950.8,993.2c2.2,2.5,2.1,5.9,3,8.9c0.6,3.3,2.7,5.9,4.9,8.3
	c0.5,0.1,1.5,0.2,2.1,0.3c1.6-3.8,2-8.2,4.8-11.4c-0.2,4-1.3,7.9-1.2,11.9c6-2.8,7.5-9.8,10.2-15.2c0.1,5.1,0.1,10.1-0.1,15.2
	c1.6-0.9,3.2-1.8,4.7-3c-1.1,1.6-1.7,3.3-2.1,5.1c1.4,0.5,2.9,1,4.3,1.5c0.6,2,1.2,4,1.8,6c2.8-0.3,5.6-0.5,8.4-0.3
	c0.5,3.7,0.4,7.6-1,11.1c-1.4,3-4.3,5.1-5.8,8.1c-0.6,2.1-0.4,4.3-0.5,6.5c0.5,0.1,1.5,0.4,2.1,0.5c0.3,0.4,1,1.2,1.4,1.6
	c-0.1,1.3-0.1,2.6-0.1,3.9c1.7,1,3.5,2,5.2,3c-1.5,0.1-3,0.3-4.5,0.4c-0.5,4.5,3.1,7.5,6.2,10.2c6.9,5.4,8.7,14.4,13.6,21.3
	c5,6.9,10.5,13.4,16.6,19.4c3.4,4.3,7.2,8.9,8.2,14.5c0.8,6.1-5.5,9.1-9,13c0-0.6,0.1-1.7,0.1-2.2c-2.4,1.2-3.2,3.6-3.3,6.1
	c-0.5,6.2-6.3,11.7-12.7,11.3c-3.3,0.4-7.5-0.6-10.1,1.9c-0.7,3.1-0.1,6.3,0.1,9.4c-0.4,4.8-1,10.2-5.3,13.3
	c-3.8,4.3-10.6,5.3-15.4,2.2c-3.4-3.2-4-8.1-5.9-12.2c-1-0.1-2.1-0.2-3.1-0.3c-4.3,6.7-7.2,14.3-13.2,19.8
	c-5.6,6.3-12.5,11.2-20.2,14.5c-3.8,1.2-8-0.1-11.8,1.3c-2.7,1-5.6,1.5-8.5,1.8c-0.1,1.2-0.2,2.4-0.4,3.6c-5,0.3-8.3,4.4-11.1,8.1
	c-2.8,3.6-3.4,8.7-7.3,11.5c-5.8,4.6-11.4,9.6-18.1,12.7c-4.4,2-9.5,2.7-13.2,5.8c-3.6,11.5-2.9,23.8-3.4,35.7
	c-1,10.6-1.2,21.3-0.7,31.9c1.6,5.5,4.6,10.5,7,15.6c1.4,2.1,2.3,5,4.5,6.5c6.1,0.1,11.8-4,18-2.2c4.7,0.6,8.1,4.4,9.2,8.9
	c-0.2,3.9-0.4,8.9-4.5,10.8c-5.5,0.8-11.1,0-16.6,0.1c-7.1-0.3-14.5,0.8-21.4-1.3c-3.2-0.6-4.6-4.7-8.2-4.4
	c-5.2-6.4-8.1-14.2-12-21.4c-3.8-7.8-3.9-16.8-6.7-25c-1.9-6.6-4.1-13.1-6.5-19.5c-2.6-7.4-5.1-14.9-7.1-22.6
	c-0.3-3.6-0.6-7.2-1.9-10.6c-0.6-0.2-1.7-0.5-2.3-0.7c-7.3-2.1-14.8-5.4-22.6-3.7c-3.1,1.5-6.3,3.6-7.9,6.7
	c-2.1,10.2-2,20.7-0.3,30.9c0.6,6.3,1,12.6,0.7,18.8c-2,9.3-9.3,17.4-18.4,20.1c-1.5,0.3-3.2-0.1-4.4,0.9c-3,2.2-6.6,3.7-10.1,4.7
	c-3.7,0.4-7.3-1.6-11-0.9c-3.4,1.5-4.7,5.5-8,7.2c-3.3,2.1-7.2,1.1-10.8,1.4c-2.7,0.6-5.1,2.7-8,2.5c-5.5,0.4-11-4.2-11.1-9.9
	c0-3.2,0.1-7.1,3.1-9c3.4-2.2,4.6-6.3,7.8-8.6c2.1,0,4.1,0.3,6.2,0.4c3.4-1.6,5.7-5,9.3-6.3c3.4-0.8,6.9,0.2,10.4,0.2
	c1.7-2.3,5.1-4.9,3.6-8c-1.8-4.6-3.9-9.1-6-13.6c-3.7-10-7.7-20-10.1-30.3c-2-10.4-2.8-21-4.8-31.4c-6.8,0.1-13.6,1.6-20.4,0.9
	c-6-0.7-12.1-0.7-18.1-0.9c-2.8,0-5.2-1.6-7.6-2.8c-4.2-2.2-8.7-4-12.9-6.2c-3.8-2-6.5-5.7-10.6-7.3c-3.8-1.8-7.8-3-11.8-4.1
	c-10.6-3.7-19.7-10.6-29.6-15.9c-1.9,7.5,0.3,15.4-1.3,22.9c-3,6.5-3.7,13.8-3.7,20.9c0,5.4-1.2,10.7-1.5,16
	c-0.7,12.7-0.3,25.5,0.8,38.2c3.3,6.2,6.4,12.6,11.3,17.8c4.9,5.4,9.3,11.4,15.1,15.9c2.8,2.5,6.6,1.2,10,1.3
	c6.3-0.2,13.2,3,15.5,9.2c1.9,4.1-1.2,8.4-4.5,10.7c-3-0.1-5.4,1.8-8,3c-2.8,0.6-5.8,0.8-8.5,1.7c-7.3,3.1-16,2.1-22.8-1.7
	c-1.4-2.2-1-5.3-2.6-7.4c-6.7-9.5-16.9-15.8-23.9-25.1c-6.2-8.5-12.8-16.8-18.6-25.6c-2.3-6.1-0.8-12.8-1.2-19.2
	c0.2-14.7-6.6-28.2-13.1-41c-4.7,5.6-7.9,12.2-12.4,18c-5.5,8.1-13.6,13.9-19.8,21.4c-4.7,6.3-9.7,12.8-11.3,20.8
	c-2.3,12.1,2.5,23.9,5.6,35.4c2.9,1.2,5.9,0.4,8.5-1.1c5.3,1.8,11.7,4,13.6,9.9c2.1,4.6-1.4,10-6.1,11c-6.8,1.3-13.7,0-20.5,0.4
	c-4.5,0.3-9.3,0-13.2-2.5c-1.8-1.3-4.6-2.5-4.5-5.1c-0.1-4,0.4-8.1-0.5-12.1c-0.9-5-4.9-8.8-5.8-13.9c-1.4-7.4-3.7-14.6-5.1-22
	c-1.5-9.3-6.5-19.9-0.6-28.6c6.1-7.7,13.2-15.4,15.1-25.5c2.1-10.9,3.7-21.9,3.4-33c-0.2-14.7,0.6-29.4-1.1-44
	c-0.3-10.7-0.6-21.4-1.2-32.1c-1-3.6-3.9-6.2-6.2-9.1c-14.5,6.3-29.2,12.4-44.5,16.7c2.9,2.3,6.8,2.7,9.8,4.9c2.5,1.9,4,4.7,5.6,7.2
	c1.8,3,3.9,6,4.6,9.5c-2.2,0.1-4.5,0.2-6.7,0.2c-8.3,0.7-15.8-3.9-23-7.4c-4.9-2.2-8.3-6.5-11.4-10.7c-5.7-0.3-11.4-1.3-16.8-3.5
	c-2.2-0.8-3.7-2.9-4.2-5c0.1-4,3.4-7.3,7.4-7.1c9.7-0.1,19.5-2.1,28.3-6.3c11.1-5.5,22-11,32.6-17.4c3.2-2,5.8-4.8,8.5-7.4
	c5.5-5.7,13.3-8.2,20.1-11.8c19.4-10,41.1-14.5,62.5-18c8.3-1.3,16.6-2.9,25-3.1c8.3,0.5,16.6,2.1,24.9,1.9c5-0.1,10,0.8,15,0.8
	c13.7,0,27.3,0.2,41-0.1c8-0.9,16-1,24,0c17.9,0.6,35.7,2.7,53.6,2.4c4.1-5.2,10.2-8.5,16.5-10.1c4.6-1.1,9.4-1.1,13.8-2.8
	c10.4-3.8,18.8-11.6,28.9-16c4.2-1.9,8.4-4.1,12.7-5.9c7.5-2.7,15.6-0.8,23.3-0.2c-0.9-1.5-1.8-2.8-2.8-4.3
	c4.6-0.9,9.3-0.8,13.9-0.3c2.4,0.3,4.3,2.4,6.7,2.6c1.7-0.7,2.8-2.3,4.2-3.4c3.3,1.1,7.4,5.6,10.7,2.3c3.1-3.3,7.5-5.6,12.1-5.3
	c2.5,0.6,4.9,1.9,7.5,2.5c-1.1-1.5-2.1-2.9-3.3-4.3c10.8-0.7,20.2,5.4,30.2,8.5c-0.7-2.3-1.9-4.3-3.1-6.3c3.9,1.1,7.3,3.5,10.9,5.5
	c-0.2-2.3-0.4-4.7-0.6-7c0.9,0.2,2.6,0.6,3.5,0.8c-0.1-1.8-0.1-3.4-0.2-5.2c1.5,3.8,3,7.8,6,10.8c1.9,0,2.3-2.6,3.4-3.8
	c2.4-3,1.5-6.9,1.3-10.3c1,1.9,2,3.8,3,5.8c0.4-2.3,1-4.6,1.7-6.9c0.9,3.3,1.8,6.6,3,9.8c0.4,0.2,1.2,0.5,1.6,0.7
	C950.7,1003.6,950.5,998.4,950.8,993.2z"/>
<path fill="#F3EB66" stroke="#F3EB66" stroke-width="9.375000e-002" d="M252,1015.1c9.7-2.2,19.7-6.3,29.7-3.6
	c6,2.5,6.8,9.8,8.4,15.3c0.9,7.4,1.4,14.8,1.8,22.2c0.7,7.6-0.5,15.3-0.2,22.9c0.2,11.1-1.3,22.1-1.1,33.1c-0.2,9,0.3,18-0.9,27
	c0.1,8.7-1.2,17.3-1,25.9c-0.1,14-0.1,28.1-0.9,42.1c0.2,15.3-1.1,30.7-0.9,46c0.1,10.5-0.3,21,0.1,31.6l-1.2,0.5
	c-0.5-16,0-32.1-0.1-48.1c0.3-10.7-0.5-21.4,0.6-32.1c0.3-8.7,0.1-17.3,0.3-26c1.5-13.6,0.7-27.3,1.2-41c0.9-8.3,0.5-16.7,0.9-25.1
	c1.5-11.9,0.5-24,1.2-35.9c1.3-12-0.2-24-0.5-36c-1.2-7.1-1.3-15.8-7.5-20.7c-5.8-2-12.4-0.9-18.2,0.7c-8.2,2.3-16.8,3.2-24.9,6.2
	c-5.4,2.1-7.7,7.7-9.7,12.7c-2.1,4.9-3.3,10.3-5.3,15.3c-0.7,0.7-1.4,1.4-2.1,2.1c2.3-9.4,5.3-18.7,10.5-26.9
	C236.9,1017,245.2,1016.9,252,1015.1z"/>
<path fill="#F6EE6A" stroke="#F6EE6A" stroke-width="9.375000e-002" d="M221.8,1050.1c0.7-0.7,1.4-1.4,2.1-2.1
	c-1.3,3.9-2.5,7.9-3.7,11.9c-9.4,28.4-16.4,57.6-21.8,87.1c-0.9,8.4-2.8,16.7-3.8,25c0,6.4-2.1,12.6-2.1,19
	c-0.3,9.9-2.3,19.7-2.1,29.6c0.1,5.8-1.1,11.5-0.9,17.3c-0.2,13.3,0.1,26.7-0.2,40.1c0,0,0,0.1,0,0.2c-0.5,6,0.3,12,0.3,18
	c-2.3-4.4-2.1-9.4-2.1-14.2c0.2-8.7-0.1-17.3,0-26c0.4-12-0.6-24.1,1.1-36.1c-0.1-5.7,1-11.3,1-17c-0.3-6.1,2.1-11.9,1.9-18
	c-0.1-5,1.4-9.9,1.8-14.9c0.3-6.2,2-12.2,2.5-18.3c2.3-9.9,3.3-20,5.6-29.8c1.3-6.6,3.4-13.1,4.3-19.8
	C210.9,1084.7,215.6,1067.2,221.8,1050.1z"/>
<path fill="#F7EA50" stroke="#F7EA50" stroke-width="9.375000e-002" d="M331.9,1055.2c0.4,0.2,1.2,0.7,1.6,1
	c-2.6,21.2-5.7,42.4-6.1,63.8c0.1,6.1-1.1,12-0.9,18.1c-0.4,18.7,0.4,37.3-0.9,56c-0.1,7.4,0.1,14.9-1,22.3
	c-0.2,13.9-1.5,27.7-1.3,41.6c-0.6,6.7-0.9,13.4-0.7,20.2v0.2c0.1,11.3,0.4,22.7,2.6,33.8c2.1,10.9,5,21.7,6.1,32.7
	c0.8,8.4,0.6,17-0.1,25.4c-3,1.8-6.9,4.1-10.3,2c-3.6-2.6-4.7-7.3-5.7-11.4c-1.9-10.2-1.9-20.6-2.5-30.8
	c-0.6-16.3-1.2-32.5-1.5-48.8c2,4.3,1.6,9.1,1.9,13.8c0.3,15.7,1.1,31.4,1.9,47.1c0.2,7.2,0.5,14.6,2.5,21.6
	c1.1,2.7,2.2,5.6,4.5,7.5c2.8,0.7,6.9,0,7.5-3.3c2.1-8.8,0.1-17.8-0.3-26.7c-0.1-5-1.8-9.8-2.8-14.7c-2-9.7-3.8-19.5-5-29.3
	c-0.6-19-0.4-37.9,0.1-56.9c1.7-15.9,1.8-31.8,1.9-47.8c1.1-12.7,0.7-25.5,1-38.3c1.1-14.1,0.2-28.3,1.1-42.4c2-9.9,1-20.1,2.9-30
	C329.3,1072.8,331.5,1064.1,331.9,1055.2z"/>
<path fill="#F7EA50" stroke="#F7EA50" stroke-width="9.375000e-002" d="M285.7,1278.1l1.2-0.5c1.7,30.8-1.9,61.7,2,92.4
	c0.4,1.8,0.4,4.1,2.1,5.3c3.7,0.6,8.6-0.4,10.1-4.3c0.8-3.9,1.8-8,1.2-12c-1-7-1.1-14-2-21c-1.6-11.6-0.6-23.3-1.4-35
	c0.2-5.9-1.2-12.1,1-17.8c0.6,17.6,0.8,35.2,1.9,52.7c0.9,10.7,3.3,21.5,1.4,32.3c-1,6.6-10.3,8.8-15.2,5.4
	C283.8,1343.3,286.5,1310.6,285.7,1278.1z"/>
<path fill="#F7F164" stroke="#F7F164" stroke-width="9.375000e-002" d="M160.2,1109.5c0.4,0,1.1,0.1,1.5,0.1
	c-1.3,7.9-4.2,15.5-6.1,23.3c-12.2,40.7-21.7,82.5-24.5,125c-1,6.7-0.8,13.5-0.7,20.2c-0.2,0-0.5,0-0.7,0
	c-0.6,31.1,0.8,62.3-1.2,93.4c-4.2,1.6-9.5,2.3-13.1-1.1c-4.9-4.9-5.9-12.3-6.9-18.9c-1.7-21.6,0.9-43.2,3.6-64.6
	c0.4-3,0.6-5.9,0.6-8.9l0-0.2c0.6-4.6,0.7-9.2,1.3-13.7c1.8-10.9,2-22.1,4.2-33c0.7,6.9,0.2,13.8-1,20.6c-1.1,6-0.5,12.1-2,18
	c-1.3,5.3-0.3,10.9-1.7,16.2c-1.4,5.9-1.1,12.1-2.2,18.1c-0.8,4.6-0.9,9.3-1.1,13.9c-1.7,12.6-1.5,25.4,0.2,38
	c0.2,5.1,2.9,9.6,5.9,13.5c2.4,3.1,7,2.3,10.2,1.1c1.5-2.6,0.7-5.8,0.9-8.6c-0.4-7.3,1.1-14.6,1-21.9c0-15,0.1-30-0.1-45
	c0-9-0.3-18.1,0.6-27.1c0.7-7.7-0.1-15.4,1.4-23c1.2-5.9,0.5-11.9,2.2-17.7c1-4,0.6-8.2,1.6-12.2c1.3-6,2.6-11.9,3.5-18
	c4.2-21.5,10.1-42.7,15.8-63.9c1.2-4.9,4-9.4,3.5-14.5C158.1,1115.6,159.6,1112.7,160.2,1109.5z"/>
<path fill="#EAB458" stroke="#EAB458" stroke-width="9.375000e-002" d="M1020.6,1137.8c0.1-2.5,0.9-4.8,3.3-6.1
	c0,0.6-0.1,1.7-0.1,2.2c-2,5.4-2.8,12.4-8.6,15.3c-5,3.1-11.1,2.3-16.7,2.4c0.1,2.9,0.1,5.9-0.5,8.8c-0.3-3.1-0.9-6.3-0.1-9.4
	c2.6-2.6,6.8-1.5,10.1-1.9C1014.2,1149.4,1020,1144,1020.6,1137.8z"/>
<path fill="#EAB458" stroke="#EAB458" stroke-width="9.375000e-002" d="M899.1,1338.8c1.2,3.4,1.8,7.6-0.8,10.6
	c-2.1,3-6.3,2.2-9.4,2.2c-9.3-0.8-18.7,0-28-0.6c-5-0.2-9.4-3.2-12.5-7c3.6-0.3,4.9,3.8,8.2,4.4c6.9,2.1,14.3,1,21.4,1.3
	c5.5-0.1,11.1,0.7,16.6-0.1C898.8,1347.7,899,1342.6,899.1,1338.8z"/>
<path fill="#FFFDD2" stroke="#FFFDD2" stroke-width="9.375000e-002" d="M301.3,1218c0.1-4.3,1.1-8.7,3.8-12.2
	c2.7,11.9,3.1,24.2,4.4,36.3c0.1,3,0,6,0.3,9c1.1,9,0.5,18,1,27.1c-3.7,0.1-7.4,0.1-11.1,0.1c-0.2-9.7-0.1-19.5,0-29.2
	C301,1238.7,299.6,1228.2,301.3,1218z"/>
<path fill="#F4D383" stroke="#F4D383" stroke-width="9.375000e-002" d="M811.9,1244.3c0.6,0.2,1.7,0.5,2.3,0.7
	c1.3,3.4,1.6,7,1.9,10.6C814.3,1251.9,813.1,1248.1,811.9,1244.3z"/>
<path fill="#F5E542" stroke="#F5E542" stroke-width="9.375000e-002" d="M173.3,1271.3c0-4.2-0.1-8.4,1.2-12.5
	c0.5,5.7,0.3,11.5,0.6,17.2c0.5,14.7,2.3,29.3,2.2,44c0.3,5.7,2.3,11.2,1.9,17c-0.5,5.4,1.5,10.6,2.2,15.9c0.6,4.6,3,9.1,7.1,11.6
	c2.3,0.5,4.6,0,6.9-0.1c2.1-4.5,2.6-9.5,2.1-14.4c-0.2-9.5-5-18-6-27.3c-1-8.7-4.3-17.7-1.6-26.4c1.6,12.1,2.3,24.3,5.6,36.1
	c2.3,9.1,5.9,18.6,3.2,28c-1,2.6-1.9,6.5-5.5,6.2c-4,0.7-8.1-1.3-10.1-4.7c-3.7-5.9-4.6-13.1-5.4-19.9c-2.1-21.3-3.1-42.6-4-64
	C173.5,1275.8,173.4,1273.5,173.3,1271.3z"/>
<path fill="#503C00" stroke="#503C00" stroke-width="9.375000e-002" d="M172.5,1278.1l1.1-0.1c1,21.3,1.9,42.7,4,64
	c0.8,6.8,1.7,13.9,5.4,19.9c2.1,3.4,6.1,5.4,10.1,4.7c3.5,0.3,4.4-3.7,5.5-6.2c2.6-9.4-0.9-19-3.2-28c-3.3-11.8-4-24.1-5.6-36.1
	l0-0.1c0-6-0.9-12-0.3-18c1,1,2.1,2.1,1.9,3.7c0.2,6-0.5,12.1,0.7,18c1.3,5.9,0.9,12,2.2,17.9c1,5.5,1.9,11.1,3.5,16.5
	c1.9,8.5,5.3,17.3,2.8,26.1c-1.1,3.2-2.6,7.3-6.4,7.9c-5.5,1.4-11-2.3-13.6-6.9c-3.3-6.2-3.7-13.3-4.9-20.1
	c-0.8-4.7-0.8-9.5-0.9-14.3c0-4.4-1.8-8.6-1.6-13.1c0.2-6.3-0.3-12.6-0.5-19C172.6,1289.4,171.2,1283.7,172.5,1278.1z"/>
<path fill="#533A00" stroke="#533A00" stroke-width="9.375000e-002" d="M284.6,1278.2l1.1,0c0.8,32.4-2,65.1,2.2,97.4
	c4.9,3.4,14.3,1.3,15.2-5.4c1.9-10.7-0.5-21.6-1.4-32.3c-1.1-17.6-1.4-35.2-1.9-52.7c0-2.4,0-4.7-0.1-7c3.7,0,7.4,0,11.1-0.1
	c0.1,1,0.3,2.1,0.5,3.1c0.3,16.3,0.9,32.5,1.5,48.8c0.7,10.3,0.6,20.7,2.5,30.8c0.9,4.1,2,8.8,5.7,11.4c3.4,2.1,7.3-0.1,10.3-2
	c0.7-8.4,0.9-16.9,0.1-25.4c-1.1-11.1-4.1-21.8-6.1-32.7c-2.1-11.1-2.5-22.5-2.6-33.8c0.5,0.4,1.5,1.1,1.9,1.5
	c0.4,8.8-0.2,17.9,1.7,26.6c1.2,9.6,3.7,18.9,5.3,28.4c2.8,11.1,2.6,22.8,1.2,34.1c-0.2,1.7-1.3,3.1-2.5,4.3c-2.2,2.4-6,1.6-8.8,1.3
	c-3.8-1.6-6.1-5.6-7.7-9.2c-1.2-5.7-1-11.5-1.9-17.2c-1.4-10.3-0.8-20.7-1.6-31c0.1-7-1.4-13.9-1-20.9c0.2-5.8,0.1-11.6-0.4-17.4
	c-2.4-0.3-4.7-0.2-7.1,0.2c-0.4,7-0.2,14.1,0,21.1c1.8,15-0.1,30.2,2.7,45.1c0.9,7.9,1.1,15.9,0.6,23.9c-0.1,8.8-13.5,13.8-19,6.8
	c-2.2-8-1-16.5-1.8-24.8c-1-9-0.6-18.1-0.7-27.1c0.1-9.7-0.2-19.4,0.3-29.1C284.3,1289.3,283.4,1283.7,284.6,1278.2z"/>
<path fill="#553B00" stroke="#553B00" stroke-width="9.375000e-002" d="M111,1280.1c0.5-0.5,1.4-1.5,1.8-2c0,3-0.2,5.9-0.6,8.9
	c-2.7,21.4-5.3,43-3.6,64.6c0.9,6.6,1.9,13.9,6.9,18.9c3.5,3.4,8.8,2.7,13.1,1.1c2-31.1,0.6-62.3,1.2-93.4c0.8,1.1,1.3,2.3,1.5,3.7
	c0.2,22.4-0.3,44.8,0.4,67.1c-0.3,5.7-0.7,11.4-0.7,17.1c-0.1,2.8-0.2,6.3-2.7,8.1c-4.4,1.8-9.6,0.7-13.4-2
	c-5.7-5.8-7.5-14.3-8-22.2c-0.4-12.7-0.2-25.4,0.4-38c0.1-4.7,1.5-9.3,1.6-14C108.7,1291.9,111.2,1286.2,111,1280.1z"/>
<path fill="#664B38" stroke="#664B38" stroke-width="9.375000e-002" d="M1919,1289.1c-0.1-3.6-0.2-7.2,1-10.6V1508h-1
	C1918.9,1435,1919.1,1362,1919,1289.1z"/>
</svg>
